<?xml version="1.0" encoding="utf-8" ?>
<svg xmlns="http://www.w3.org/2000/svg" xmlns:ev="http://www.w3.org/2001/xml-events" xmlns:xlink="http://www.w3.org/1999/xlink" baseProfile="full" height="500px" version="1.1" viewBox="0 0 500 500" width="500px">
  <defs/>
  <g id="x970310_r151_g3_b16_a0.996078431372549">
    <path d="M 286,309 337,309 337,115 315,115 315,116 314,116 314,115 313,115 313,82 428,82 432,82 432,115 431,115 431,116 430,116 430,115 405,115 405,304 405,339 404,339 404,341 403,341 403,342 402,342 402,343 401,343 401,344 400,344 400,345 399,345 399,346 398,346 398,347 397,347 397,348 396,348 396,349 395,349 395,350 394,350 394,351 393,351 393,352 392,352 392,353 391,353 391,354 390,354 390,355 389,355 389,356 388,356 388,357 387,357 387,358 386,358 386,359 385,359 385,360 384,360 384,361 383,361 383,362 382,362 382,363 381,363 381,364 380,364 380,365 379,365 379,366 378,366 378,367 377,367 377,368 376,368 376,369 375,369 375,370 374,370 374,371 373,371 373,372 372,372 372,373 371,373 371,374 370,374 370,375 369,375 369,376 368,376 368,377 367,377 367,378 366,378 366,379 365,379 365,380 364,380 364,381 363,381 363,382 362,382 362,383 361,383 361,384 328,384 286,384 286,436 313,436 313,480 187,480 187,436 214,436 214,384 160,384 138,384 138,383 137,383 137,382 136,382 136,381 135,381 135,380 134,380 134,379 133,379 133,378 132,378 132,377 131,377 131,376 130,376 130,375 129,375 129,374 128,374 128,373 127,373 127,372 126,372 126,371 125,371 125,370 124,370 124,369 123,369 123,368 122,368 122,367 121,367 121,366 120,366 120,365 119,365 119,364 118,364 118,363 117,363 117,362 116,362 116,361 115,361 115,360 114,360 114,359 113,359 113,358 112,358 112,357 111,357 111,356 110,356 110,355 109,355 109,354 108,354 108,353 107,353 107,352 106,352 106,351 105,351 105,350 104,350 104,349 103,349 103,348 102,348 102,347 101,347 101,346 100,346 100,344 98,344 98,343 97,343 97,342 96,342 96,341 95,341 95,339 94,339 94,115 69,115 69,116 68,116 68,115 67,115 67,82 186,82 186,116 185,116 185,115 162,115 162,194 162,309 214,309 214,216 214,54 187,54 187,20 313,20 313,54 286,54 z" fill="#970310" fill-opacity="0.996078431372549" id="x970310_r151_g3_b16_a0.996078431372549_shape1"/>
  </g>
  <g id="x970310_r151_g3_b16_a0.19215686274509805">
    <path d="M 287,308 286,308 286,55 287,55 z" fill="#970310" fill-opacity="0.19215686274509805" id="x970310_r151_g3_b16_a0.19215686274509805_shape1"/>
    <path d="M 162,116 163,116 163,261 163,308 162,308 162,272 z" fill="#970310" fill-opacity="0.19215686274509805" id="x970310_r151_g3_b16_a0.19215686274509805_shape2"/>
    <path d="M 336,116 337,116 337,308 336,308 z" fill="#970310" fill-opacity="0.19215686274509805" id="x970310_r151_g3_b16_a0.19215686274509805_shape3"/>
    <path d="M 287,435 286,435 286,385 287,385 z" fill="#970310" fill-opacity="0.19215686274509805" id="x970310_r151_g3_b16_a0.19215686274509805_shape4"/>
    <path d="M 186,81 187,81 187,104 187,116 186,116 186,115 z" fill="#970310" fill-opacity="0.19215686274509805" id="x970310_r151_g3_b16_a0.19215686274509805_shape5"/>
    <path d="M 313,20 314,20 314,39 314,54 313,54 313,40 z" fill="#970310" fill-opacity="0.19215686274509805" id="x970310_r151_g3_b16_a0.19215686274509805_shape6"/>
    <path d="M 313,116 312,116 312,97 312,82 313,82 313,96 z" fill="#970310" fill-opacity="0.19215686274509805" id="x970310_r151_g3_b16_a0.19215686274509805_shape7"/>
    <path d="M 163,308 164,308 164,309 163,309 z" fill="#970310" fill-opacity="0.19215686274509805" id="x970310_r151_g3_b16_a0.19215686274509805_shape8"/>
    <path d="M 212,308 213,308 213,309 212,309 z" fill="#970310" fill-opacity="0.19215686274509805" id="x970310_r151_g3_b16_a0.19215686274509805_shape9"/>
    <path d="M 288,308 288,309 287,309 287,308 z" fill="#970310" fill-opacity="0.19215686274509805" id="x970310_r151_g3_b16_a0.19215686274509805_shape10"/>
    <path d="M 336,308 336,309 335,309 335,308 z" fill="#970310" fill-opacity="0.19215686274509805" id="x970310_r151_g3_b16_a0.19215686274509805_shape11"/>
    <path d="M 401,343 402,343 402,344 401,344 z" fill="#970310" fill-opacity="0.19215686274509805" id="x970310_r151_g3_b16_a0.19215686274509805_shape12"/>
    <path d="M 100,346 101,346 101,347 100,347 z" fill="#970310" fill-opacity="0.19215686274509805" id="x970310_r151_g3_b16_a0.19215686274509805_shape13"/>
    <path d="M 398,346 399,346 399,347 398,347 z" fill="#970310" fill-opacity="0.19215686274509805" id="x970310_r151_g3_b16_a0.19215686274509805_shape14"/>
    <path d="M 102,348 101,348 101,347 102,347 z" fill="#970310" fill-opacity="0.19215686274509805" id="x970310_r151_g3_b16_a0.19215686274509805_shape15"/>
    <path d="M 398,348 397,348 397,347 398,347 z" fill="#970310" fill-opacity="0.19215686274509805" id="x970310_r151_g3_b16_a0.19215686274509805_shape16"/>
    <path d="M 102,349 102,348 103,348 103,349 z" fill="#970310" fill-opacity="0.19215686274509805" id="x970310_r151_g3_b16_a0.19215686274509805_shape17"/>
    <path d="M 396,348 397,348 397,349 396,349 z" fill="#970310" fill-opacity="0.19215686274509805" id="x970310_r151_g3_b16_a0.19215686274509805_shape18"/>
    <path d="M 103,349 104,349 104,350 103,350 z" fill="#970310" fill-opacity="0.19215686274509805" id="x970310_r151_g3_b16_a0.19215686274509805_shape19"/>
    <path d="M 396,350 395,350 395,349 396,349 z" fill="#970310" fill-opacity="0.19215686274509805" id="x970310_r151_g3_b16_a0.19215686274509805_shape20"/>
    <path d="M 395,351 394,351 394,350 395,350 z" fill="#970310" fill-opacity="0.19215686274509805" id="x970310_r151_g3_b16_a0.19215686274509805_shape21"/>
    <path d="M 106,352 105,352 105,351 106,351 z" fill="#970310" fill-opacity="0.19215686274509805" id="x970310_r151_g3_b16_a0.19215686274509805_shape22"/>
    <path d="M 394,352 393,352 393,351 394,351 z" fill="#970310" fill-opacity="0.19215686274509805" id="x970310_r151_g3_b16_a0.19215686274509805_shape23"/>
    <path d="M 109,354 109,355 108,355 108,354 z" fill="#970310" fill-opacity="0.19215686274509805" id="x970310_r151_g3_b16_a0.19215686274509805_shape24"/>
    <path d="M 110,356 109,356 109,355 110,355 z" fill="#970310" fill-opacity="0.19215686274509805" id="x970310_r151_g3_b16_a0.19215686274509805_shape25"/>
    <path d="M 111,357 110,357 110,356 111,356 z" fill="#970310" fill-opacity="0.19215686274509805" id="x970310_r151_g3_b16_a0.19215686274509805_shape26"/>
    <path d="M 186,435 187,435 187,436 186,436 z" fill="#970310" fill-opacity="0.19215686274509805" id="x970310_r151_g3_b16_a0.19215686274509805_shape27"/>
  </g>
  <g id="x970310_r151_g3_b16_a0.07058823529411765">
    <path d="M 93,116 94,116 94,339 93,339 z" fill="#970310" fill-opacity="0.07058823529411765" id="x970310_r151_g3_b16_a0.07058823529411765_shape1"/>
    <path d="M 405,116 406,116 406,295 406,339 405,339 405,303 z" fill="#970310" fill-opacity="0.07058823529411765" id="x970310_r151_g3_b16_a0.07058823529411765_shape2"/>
    <path d="M 212,384 212,385 137,385 137,384 z" fill="#970310" fill-opacity="0.07058823529411765" id="x970310_r151_g3_b16_a0.07058823529411765_shape3"/>
    <path d="M 362,384 362,385 288,385 288,384 z" fill="#970310" fill-opacity="0.07058823529411765" id="x970310_r151_g3_b16_a0.07058823529411765_shape4"/>
    <path d="M 314,480 313,480 313,435 314,435 z" fill="#970310" fill-opacity="0.07058823529411765" id="x970310_r151_g3_b16_a0.07058823529411765_shape5"/>
    <path d="M 313,55 313,54 314,54 314,55 z" fill="#970310" fill-opacity="0.07058823529411765" id="x970310_r151_g3_b16_a0.07058823529411765_shape6"/>
    <path d="M 312,81 313,81 313,82 312,82 z" fill="#970310" fill-opacity="0.07058823529411765" id="x970310_r151_g3_b16_a0.07058823529411765_shape7"/>
    <path d="M 94,340 95,340 95,341 94,341 z" fill="#970310" fill-opacity="0.07058823529411765" id="x970310_r151_g3_b16_a0.07058823529411765_shape8"/>
    <path d="M 404,340 405,340 405,341 404,341 z" fill="#970310" fill-opacity="0.07058823529411765" id="x970310_r151_g3_b16_a0.07058823529411765_shape9"/>
    <path d="M 96,342 95,342 95,341 96,341 z" fill="#970310" fill-opacity="0.07058823529411765" id="x970310_r151_g3_b16_a0.07058823529411765_shape10"/>
    <path d="M 403,341 404,341 404,342 403,342 z" fill="#970310" fill-opacity="0.07058823529411765" id="x970310_r151_g3_b16_a0.07058823529411765_shape11"/>
    <path d="M 96,343 96,342 97,342 97,343 z" fill="#970310" fill-opacity="0.07058823529411765" id="x970310_r151_g3_b16_a0.07058823529411765_shape12"/>
    <path d="M 403,343 402,343 402,342 403,342 z" fill="#970310" fill-opacity="0.07058823529411765" id="x970310_r151_g3_b16_a0.07058823529411765_shape13"/>
    <path d="M 98,344 97,344 97,343 98,343 z" fill="#970310" fill-opacity="0.07058823529411765" id="x970310_r151_g3_b16_a0.07058823529411765_shape14"/>
    <path d="M 98,345 98,344 99,344 99,345 z" fill="#970310" fill-opacity="0.07058823529411765" id="x970310_r151_g3_b16_a0.07058823529411765_shape15"/>
    <path d="M 401,345 400,345 400,344 401,344 z" fill="#970310" fill-opacity="0.07058823529411765" id="x970310_r151_g3_b16_a0.07058823529411765_shape16"/>
    <path d="M 100,346 99,346 99,345 100,345 z" fill="#970310" fill-opacity="0.07058823529411765" id="x970310_r151_g3_b16_a0.07058823529411765_shape17"/>
    <path d="M 399,345 400,345 400,346 399,346 z" fill="#970310" fill-opacity="0.07058823529411765" id="x970310_r151_g3_b16_a0.07058823529411765_shape18"/>
    <path d="M 104,350 105,350 105,351 104,351 z" fill="#970310" fill-opacity="0.07058823529411765" id="x970310_r151_g3_b16_a0.07058823529411765_shape19"/>
    <path d="M 365,380 366,380 366,381 365,381 z" fill="#970310" fill-opacity="0.07058823529411765" id="x970310_r151_g3_b16_a0.07058823529411765_shape20"/>
  </g>
  <g id="x970310_r151_g3_b16_a0.5176470588235295">
    <path d="M 213,55 214,55 214,298 214,308 213,308 213,288 z" fill="#970310" fill-opacity="0.5176470588235295" id="x970310_r151_g3_b16_a0.5176470588235295_shape1"/>
    <path d="M 214,384 214,435 213,435 213,384 z" fill="#970310" fill-opacity="0.5176470588235295" id="x970310_r151_g3_b16_a0.5176470588235295_shape2"/>
    <path d="M 186,54 186,21 187,21 187,54 z" fill="#970310" fill-opacity="0.5176470588235295" id="x970310_r151_g3_b16_a0.5176470588235295_shape3"/>
    <path d="M 188,436 188,435 213,435 213,436 z" fill="#970310" fill-opacity="0.5176470588235295" id="x970310_r151_g3_b16_a0.5176470588235295_shape4"/>
    <path d="M 311,435 311,436 287,436 287,435 z" fill="#970310" fill-opacity="0.5176470588235295" id="x970310_r151_g3_b16_a0.5176470588235295_shape5"/>
    <path d="M 377,369 376,369 376,368 377,368 z" fill="#970310" fill-opacity="0.5176470588235295" id="x970310_r151_g3_b16_a0.5176470588235295_shape6"/>
    <path d="M 123,369 124,369 124,370 123,370 z" fill="#970310" fill-opacity="0.5176470588235295" id="x970310_r151_g3_b16_a0.5176470588235295_shape7"/>
    <path d="M 375,370 375,369 376,369 376,370 z" fill="#970310" fill-opacity="0.5176470588235295" id="x970310_r151_g3_b16_a0.5176470588235295_shape8"/>
    <path d="M 374,371 374,370 375,370 375,371 z" fill="#970310" fill-opacity="0.5176470588235295" id="x970310_r151_g3_b16_a0.5176470588235295_shape9"/>
    <path d="M 373,372 373,371 374,371 374,372 z" fill="#970310" fill-opacity="0.5176470588235295" id="x970310_r151_g3_b16_a0.5176470588235295_shape10"/>
    <path d="M 372,372 373,372 373,373 372,373 z" fill="#970310" fill-opacity="0.5176470588235295" id="x970310_r151_g3_b16_a0.5176470588235295_shape11"/>
    <path d="M 128,373 128,374 127,374 127,373 z" fill="#970310" fill-opacity="0.5176470588235295" id="x970310_r151_g3_b16_a0.5176470588235295_shape12"/>
    <path d="M 372,373 372,374 371,374 371,373 z" fill="#970310" fill-opacity="0.5176470588235295" id="x970310_r151_g3_b16_a0.5176470588235295_shape13"/>
    <path d="M 129,375 130,375 130,376 129,376 z" fill="#970310" fill-opacity="0.5176470588235295" id="x970310_r151_g3_b16_a0.5176470588235295_shape14"/>
    <path d="M 369,376 369,375 370,375 370,376 z" fill="#970310" fill-opacity="0.5176470588235295" id="x970310_r151_g3_b16_a0.5176470588235295_shape15"/>
    <path d="M 131,377 130,377 130,376 131,376 z" fill="#970310" fill-opacity="0.5176470588235295" id="x970310_r151_g3_b16_a0.5176470588235295_shape16"/>
    <path d="M 131,378 131,377 132,377 132,378 z" fill="#970310" fill-opacity="0.5176470588235295" id="x970310_r151_g3_b16_a0.5176470588235295_shape17"/>
    <path d="M 133,378 133,379 132,379 132,378 z" fill="#970310" fill-opacity="0.5176470588235295" id="x970310_r151_g3_b16_a0.5176470588235295_shape18"/>
    <path d="M 313,435 313,436 312,436 312,435 z" fill="#970310" fill-opacity="0.5176470588235295" id="x970310_r151_g3_b16_a0.5176470588235295_shape19"/>
  </g>
  <g id="x970310_r151_g3_b16_a0.7294117647058823">
    <path d="M 184,81 184,82 69,82 69,81 z" fill="#970310" fill-opacity="0.7294117647058823" id="x970310_r151_g3_b16_a0.7294117647058823_shape1"/>
    <path d="M 315,82 315,81 430,81 430,82 z" fill="#970310" fill-opacity="0.7294117647058823" id="x970310_r151_g3_b16_a0.7294117647058823_shape2"/>
    <path d="M 213,54 213,55 188,55 188,54 z" fill="#970310" fill-opacity="0.7294117647058823" id="x970310_r151_g3_b16_a0.7294117647058823_shape3"/>
    <path d="M 287,55 287,54 311,54 311,55 z" fill="#970310" fill-opacity="0.7294117647058823" id="x970310_r151_g3_b16_a0.7294117647058823_shape4"/>
    <path d="M 67,81 68,81 68,82 67,82 z" fill="#970310" fill-opacity="0.7294117647058823" id="x970310_r151_g3_b16_a0.7294117647058823_shape5"/>
    <path d="M 431,81 432,81 432,82 431,82 z" fill="#970310" fill-opacity="0.7294117647058823" id="x970310_r151_g3_b16_a0.7294117647058823_shape6"/>
    <path d="M 214,308 214,309 213,309 213,308 z" fill="#970310" fill-opacity="0.7294117647058823" id="x970310_r151_g3_b16_a0.7294117647058823_shape7"/>
    <path d="M 94,340 94,339 95,339 95,340 z" fill="#970310" fill-opacity="0.7294117647058823" id="x970310_r151_g3_b16_a0.7294117647058823_shape8"/>
    <path d="M 129,375 128,375 128,374 129,374 z" fill="#970310" fill-opacity="0.7294117647058823" id="x970310_r151_g3_b16_a0.7294117647058823_shape9"/>
    <path d="M 370,375 370,374 371,374 371,375 z" fill="#970310" fill-opacity="0.7294117647058823" id="x970310_r151_g3_b16_a0.7294117647058823_shape10"/>
    <path d="M 368,377 368,376 369,376 369,377 z" fill="#970310" fill-opacity="0.7294117647058823" id="x970310_r151_g3_b16_a0.7294117647058823_shape11"/>
    <path d="M 368,377 368,378 367,378 367,377 z" fill="#970310" fill-opacity="0.7294117647058823" id="x970310_r151_g3_b16_a0.7294117647058823_shape12"/>
    <path d="M 366,378 367,378 367,379 366,379 z" fill="#970310" fill-opacity="0.7294117647058823" id="x970310_r151_g3_b16_a0.7294117647058823_shape13"/>
    <path d="M 134,379 134,380 133,380 133,379 z" fill="#970310" fill-opacity="0.7294117647058823" id="x970310_r151_g3_b16_a0.7294117647058823_shape14"/>
    <path d="M 365,380 365,379 366,379 366,380 z" fill="#970310" fill-opacity="0.7294117647058823" id="x970310_r151_g3_b16_a0.7294117647058823_shape15"/>
    <path d="M 134,381 134,380 135,380 135,381 z" fill="#970310" fill-opacity="0.7294117647058823" id="x970310_r151_g3_b16_a0.7294117647058823_shape16"/>
    <path d="M 364,381 364,380 365,380 365,381 z" fill="#970310" fill-opacity="0.7294117647058823" id="x970310_r151_g3_b16_a0.7294117647058823_shape17"/>
    <path d="M 136,382 135,382 135,381 136,381 z" fill="#970310" fill-opacity="0.7294117647058823" id="x970310_r151_g3_b16_a0.7294117647058823_shape18"/>
    <path d="M 364,381 364,382 363,382 363,381 z" fill="#970310" fill-opacity="0.7294117647058823" id="x970310_r151_g3_b16_a0.7294117647058823_shape19"/>
    <path d="M 136,383 136,382 137,382 137,383 z" fill="#970310" fill-opacity="0.7294117647058823" id="x970310_r151_g3_b16_a0.7294117647058823_shape20"/>
    <path d="M 362,383 362,382 363,382 363,383 z" fill="#970310" fill-opacity="0.7294117647058823" id="x970310_r151_g3_b16_a0.7294117647058823_shape21"/>
    <path d="M 137,383 138,383 138,384 137,384 z" fill="#970310" fill-opacity="0.7294117647058823" id="x970310_r151_g3_b16_a0.7294117647058823_shape22"/>
    <path d="M 361,384 361,383 362,383 362,384 z" fill="#970310" fill-opacity="0.7294117647058823" id="x970310_r151_g3_b16_a0.7294117647058823_shape23"/>
    <path d="M 187,435 188,435 188,436 187,436 z" fill="#970310" fill-opacity="0.7294117647058823" id="x970310_r151_g3_b16_a0.7294117647058823_shape24"/>
    <path d="M 287,435 287,436 286,436 286,435 z" fill="#970310" fill-opacity="0.7294117647058823" id="x970310_r151_g3_b16_a0.7294117647058823_shape25"/>
    <path d="M 311,435 312,435 312,436 311,436 z" fill="#970310" fill-opacity="0.7294117647058823" id="x970310_r151_g3_b16_a0.7294117647058823_shape26"/>
  </g>
  <g id="x970310_r151_g3_b16_a0.3137254901960784">
    <path d="M 212,308 212,309 164,309 164,308 z" fill="#970310" fill-opacity="0.3137254901960784" id="x970310_r151_g3_b16_a0.3137254901960784_shape1"/>
    <path d="M 288,308 335,308 335,309 288,309 z" fill="#970310" fill-opacity="0.3137254901960784" id="x970310_r151_g3_b16_a0.3137254901960784_shape2"/>
    <path d="M 186,436 187,436 187,455 187,480 186,480 186,457 z" fill="#970310" fill-opacity="0.3137254901960784" id="x970310_r151_g3_b16_a0.3137254901960784_shape3"/>
    <path d="M 186,21 186,20 187,20 187,21 z" fill="#970310" fill-opacity="0.3137254901960784" id="x970310_r151_g3_b16_a0.3137254901960784_shape4"/>
    <path d="M 186,54 187,54 187,55 186,55 z" fill="#970310" fill-opacity="0.3137254901960784" id="x970310_r151_g3_b16_a0.3137254901960784_shape5"/>
    <path d="M 162,308 163,308 163,309 162,309 z" fill="#970310" fill-opacity="0.3137254901960784" id="x970310_r151_g3_b16_a0.3137254901960784_shape6"/>
    <path d="M 287,309 286,309 286,308 287,308 z" fill="#970310" fill-opacity="0.3137254901960784" id="x970310_r151_g3_b16_a0.3137254901960784_shape7"/>
    <path d="M 337,309 336,309 336,308 337,308 z" fill="#970310" fill-opacity="0.3137254901960784" id="x970310_r151_g3_b16_a0.3137254901960784_shape8"/>
    <path d="M 106,353 106,352 107,352 107,353 z" fill="#970310" fill-opacity="0.3137254901960784" id="x970310_r151_g3_b16_a0.3137254901960784_shape9"/>
    <path d="M 392,352 393,352 393,353 392,353 z" fill="#970310" fill-opacity="0.3137254901960784" id="x970310_r151_g3_b16_a0.3137254901960784_shape10"/>
    <path d="M 107,354 107,353 108,353 108,354 z" fill="#970310" fill-opacity="0.3137254901960784" id="x970310_r151_g3_b16_a0.3137254901960784_shape11"/>
    <path d="M 391,354 391,353 392,353 392,354 z" fill="#970310" fill-opacity="0.3137254901960784" id="x970310_r151_g3_b16_a0.3137254901960784_shape12"/>
    <path d="M 390,355 390,354 391,354 391,355 z" fill="#970310" fill-opacity="0.3137254901960784" id="x970310_r151_g3_b16_a0.3137254901960784_shape13"/>
    <path d="M 389,356 389,355 390,355 390,356 z" fill="#970310" fill-opacity="0.3137254901960784" id="x970310_r151_g3_b16_a0.3137254901960784_shape14"/>
    <path d="M 388,357 388,356 389,356 389,357 z" fill="#970310" fill-opacity="0.3137254901960784" id="x970310_r151_g3_b16_a0.3137254901960784_shape15"/>
    <path d="M 111,357 112,357 112,358 111,358 z" fill="#970310" fill-opacity="0.3137254901960784" id="x970310_r151_g3_b16_a0.3137254901960784_shape16"/>
    <path d="M 387,358 387,357 388,357 388,358 z" fill="#970310" fill-opacity="0.3137254901960784" id="x970310_r151_g3_b16_a0.3137254901960784_shape17"/>
    <path d="M 112,359 112,358 113,358 113,359 z" fill="#970310" fill-opacity="0.3137254901960784" id="x970310_r151_g3_b16_a0.3137254901960784_shape18"/>
    <path d="M 387,359 386,359 386,358 387,358 z" fill="#970310" fill-opacity="0.3137254901960784" id="x970310_r151_g3_b16_a0.3137254901960784_shape19"/>
    <path d="M 114,360 113,360 113,359 114,359 z" fill="#970310" fill-opacity="0.3137254901960784" id="x970310_r151_g3_b16_a0.3137254901960784_shape20"/>
    <path d="M 386,360 385,360 385,359 386,359 z" fill="#970310" fill-opacity="0.3137254901960784" id="x970310_r151_g3_b16_a0.3137254901960784_shape21"/>
    <path d="M 114,361 114,360 115,360 115,361 z" fill="#970310" fill-opacity="0.3137254901960784" id="x970310_r151_g3_b16_a0.3137254901960784_shape22"/>
    <path d="M 384,361 384,360 385,360 385,361 z" fill="#970310" fill-opacity="0.3137254901960784" id="x970310_r151_g3_b16_a0.3137254901960784_shape23"/>
    <path d="M 115,361 116,361 116,362 115,362 z" fill="#970310" fill-opacity="0.3137254901960784" id="x970310_r151_g3_b16_a0.3137254901960784_shape24"/>
    <path d="M 384,361 384,362 383,362 383,361 z" fill="#970310" fill-opacity="0.3137254901960784" id="x970310_r151_g3_b16_a0.3137254901960784_shape25"/>
    <path d="M 117,363 116,363 116,362 117,362 z" fill="#970310" fill-opacity="0.3137254901960784" id="x970310_r151_g3_b16_a0.3137254901960784_shape26"/>
    <path d="M 382,362 383,362 383,363 382,363 z" fill="#970310" fill-opacity="0.3137254901960784" id="x970310_r151_g3_b16_a0.3137254901960784_shape27"/>
    <path d="M 118,363 118,364 117,364 117,363 z" fill="#970310" fill-opacity="0.3137254901960784" id="x970310_r151_g3_b16_a0.3137254901960784_shape28"/>
    <path d="M 382,364 381,364 381,363 382,363 z" fill="#970310" fill-opacity="0.3137254901960784" id="x970310_r151_g3_b16_a0.3137254901960784_shape29"/>
    <path d="M 118,364 119,364 119,365 118,365 z" fill="#970310" fill-opacity="0.3137254901960784" id="x970310_r151_g3_b16_a0.3137254901960784_shape30"/>
    <path d="M 380,364 381,364 381,365 380,365 z" fill="#970310" fill-opacity="0.3137254901960784" id="x970310_r151_g3_b16_a0.3137254901960784_shape31"/>
    <path d="M 119,366 119,365 120,365 120,366 z" fill="#970310" fill-opacity="0.3137254901960784" id="x970310_r151_g3_b16_a0.3137254901960784_shape32"/>
    <path d="M 379,366 379,365 380,365 380,366 z" fill="#970310" fill-opacity="0.3137254901960784" id="x970310_r151_g3_b16_a0.3137254901960784_shape33"/>
    <path d="M 120,366 121,366 121,367 120,367 z" fill="#970310" fill-opacity="0.3137254901960784" id="x970310_r151_g3_b16_a0.3137254901960784_shape34"/>
    <path d="M 378,367 378,366 379,366 379,367 z" fill="#970310" fill-opacity="0.3137254901960784" id="x970310_r151_g3_b16_a0.3137254901960784_shape35"/>
    <path d="M 122,367 122,368 121,368 121,367 z" fill="#970310" fill-opacity="0.3137254901960784" id="x970310_r151_g3_b16_a0.3137254901960784_shape36"/>
    <path d="M 377,367 378,367 378,368 377,368 z" fill="#970310" fill-opacity="0.3137254901960784" id="x970310_r151_g3_b16_a0.3137254901960784_shape37"/>
    <path d="M 123,368 123,369 122,369 122,368 z" fill="#970310" fill-opacity="0.3137254901960784" id="x970310_r151_g3_b16_a0.3137254901960784_shape38"/>
    <path d="M 125,371 124,371 124,370 125,370 z" fill="#970310" fill-opacity="0.3137254901960784" id="x970310_r151_g3_b16_a0.3137254901960784_shape39"/>
    <path d="M 126,372 125,372 125,371 126,371 z" fill="#970310" fill-opacity="0.3137254901960784" id="x970310_r151_g3_b16_a0.3137254901960784_shape40"/>
    <path d="M 127,372 127,373 126,373 126,372 z" fill="#970310" fill-opacity="0.3137254901960784" id="x970310_r151_g3_b16_a0.3137254901960784_shape41"/>
    <path d="M 286,385 286,384 287,384 287,385 z" fill="#970310" fill-opacity="0.3137254901960784" id="x970310_r151_g3_b16_a0.3137254901960784_shape42"/>
  </g>
  <g id="x970310_r151_g3_b16_a0.8352941176470589">
    <path d="M 69,116 69,115 76,115 94,115 94,116 82,116 z" fill="#970310" fill-opacity="0.8352941176470589" id="x970310_r151_g3_b16_a0.8352941176470589_shape1"/>
    <path d="M 430,115 430,116 405,116 405,115 z" fill="#970310" fill-opacity="0.8352941176470589" id="x970310_r151_g3_b16_a0.8352941176470589_shape2"/>
    <path d="M 162,116 162,115 185,115 185,116 z" fill="#970310" fill-opacity="0.8352941176470589" id="x970310_r151_g3_b16_a0.8352941176470589_shape3"/>
    <path d="M 318,115 337,115 337,116 324,116 315,116 315,115 z" fill="#970310" fill-opacity="0.8352941176470589" id="x970310_r151_g3_b16_a0.8352941176470589_shape4"/>
    <path d="M 313,54 313,55 312,55 311,55 311,54 312,54 z" fill="#970310" fill-opacity="0.8352941176470589" id="x970310_r151_g3_b16_a0.8352941176470589_shape5"/>
    <path d="M 185,82 184,82 184,81 185,81 186,81 186,82 z" fill="#970310" fill-opacity="0.8352941176470589" id="x970310_r151_g3_b16_a0.8352941176470589_shape6"/>
    <path d="M 313,82 313,81 314,81 315,81 315,82 314,82 z" fill="#970310" fill-opacity="0.8352941176470589" id="x970310_r151_g3_b16_a0.8352941176470589_shape7"/>
    <path d="M 187,54 188,54 188,55 187,55 z" fill="#970310" fill-opacity="0.8352941176470589" id="x970310_r151_g3_b16_a0.8352941176470589_shape8"/>
    <path d="M 213,55 213,54 214,54 214,55 z" fill="#970310" fill-opacity="0.8352941176470589" id="x970310_r151_g3_b16_a0.8352941176470589_shape9"/>
    <path d="M 287,55 286,55 286,54 287,54 z" fill="#970310" fill-opacity="0.8352941176470589" id="x970310_r151_g3_b16_a0.8352941176470589_shape10"/>
    <path d="M 68,82 68,81 69,81 69,82 z" fill="#970310" fill-opacity="0.8352941176470589" id="x970310_r151_g3_b16_a0.8352941176470589_shape11"/>
    <path d="M 431,81 431,82 430,82 430,81 z" fill="#970310" fill-opacity="0.8352941176470589" id="x970310_r151_g3_b16_a0.8352941176470589_shape12"/>
    <path d="M 68,116 67,116 67,115 68,115 z" fill="#970310" fill-opacity="0.8352941176470589" id="x970310_r151_g3_b16_a0.8352941176470589_shape13"/>
    <path d="M 313,115 314,115 314,116 313,116 z" fill="#970310" fill-opacity="0.8352941176470589" id="x970310_r151_g3_b16_a0.8352941176470589_shape14"/>
    <path d="M 432,116 431,116 431,115 432,115 z" fill="#970310" fill-opacity="0.8352941176470589" id="x970310_r151_g3_b16_a0.8352941176470589_shape15"/>
    <path d="M 404,339 405,339 405,340 404,340 z" fill="#970310" fill-opacity="0.8352941176470589" id="x970310_r151_g3_b16_a0.8352941176470589_shape16"/>
    <path d="M 100,345 99,345 99,344 100,344 z" fill="#970310" fill-opacity="0.8352941176470589" id="x970310_r151_g3_b16_a0.8352941176470589_shape17"/>
    <path d="M 213,436 213,435 214,435 214,436 z" fill="#970310" fill-opacity="0.8352941176470589" id="x970310_r151_g3_b16_a0.8352941176470589_shape18"/>
  </g>
</svg>
