<?xml version="1.0" encoding="utf-8" ?>
<svg xmlns="http://www.w3.org/2000/svg" xmlns:ev="http://www.w3.org/2001/xml-events" xmlns:xlink="http://www.w3.org/1999/xlink" baseProfile="full" height="500px" version="1.1" viewBox="0 0 500 500" width="500px">
  <defs/>
  <g id="x00319f_r0_g49_b159_a0.996078431372549">
    <path d="M 229,337 229,388 254,388 254,421 137,421 137,420 138,420 138,388 163,388 163,289 163,237 137,237 137,236 138,236 138,206 137,206 137,205 138,205 138,204 139,204 139,205 193,205 253,205 253,204 254,204 254,237 229,237 229,288 301,288 301,287 302,287 302,286 303,286 303,285 304,285 304,284 305,284 305,283 306,283 306,282 307,282 307,281 308,281 308,280 309,280 309,279 310,279 310,278 311,278 311,277 312,277 312,276 313,276 313,275 314,275 314,274 315,274 315,273 316,273 316,272 317,272 317,271 318,271 318,270 319,270 319,269 320,269 320,268 321,268 321,267 322,267 322,266 323,266 323,265 324,265 324,264 325,264 325,263 326,263 326,262 327,262 327,261 328,261 328,260 329,260 329,259 330,259 330,258 331,258 331,257 332,257 332,256 333,256 333,255 334,255 334,254 335,254 335,253 336,253 336,252 337,252 337,251 338,251 338,250 339,250 339,249 340,249 340,248 341,248 341,247 342,247 342,246 343,246 343,245 344,245 344,244 345,244 345,243 346,243 346,242 347,242 347,241 348,241 348,240 349,240 349,239 350,239 350,237 348,237 338,237 338,205 462,205 462,204 463,204 463,236 462,236 462,237 429,237 429,239 428,239 428,240 427,240 427,241 426,241 426,242 425,242 425,243 424,243 424,244 423,244 423,245 422,245 422,246 421,246 421,247 420,247 420,248 419,248 419,249 417,249 417,251 416,251 416,252 415,252 415,253 414,253 414,254 412,254 412,255 411,255 411,257 410,257 410,258 409,258 409,259 407,259 407,260 406,260 406,262 405,262 405,263 404,263 404,264 402,264 402,265 401,265 401,267 400,267 400,268 399,268 399,269 397,269 397,270 396,270 396,272 395,272 395,273 394,273 394,274 392,274 392,275 391,275 391,276 390,276 390,278 389,278 389,279 387,279 387,280 386,280 386,281 385,281 385,283 384,283 384,284 382,284 382,285 381,285 381,286 380,286 380,288 379,288 379,289 377,289 377,290 376,290 376,291 375,291 375,293 374,293 374,294 372,294 372,295 371,295 371,296 370,296 370,297 369,297 369,299 367,299 367,300 366,300 366,301 365,301 365,302 364,302 364,304 362,304 362,305 361,305 361,306 360,306 360,307 359,307 359,309 357,309 357,312 358,312 358,313 359,313 359,314 360,314 360,315 361,315 361,316 362,316 362,317 363,317 363,318 364,318 364,319 365,319 365,320 366,320 366,321 367,321 367,322 368,322 368,323 369,323 369,324 370,324 370,325 371,325 371,326 372,326 372,327 373,327 373,328 374,328 374,329 375,329 375,330 376,330 376,331 377,331 377,332 378,332 378,333 379,333 379,334 380,334 380,335 381,335 381,336 382,336 382,337 383,337 383,338 384,338 384,339 385,339 385,340 386,340 386,341 387,341 387,342 388,342 388,343 389,343 389,344 390,344 390,345 391,345 391,346 392,346 392,347 393,347 393,348 394,348 394,349 395,349 395,350 396,350 396,351 397,351 397,352 398,352 398,353 399,353 399,354 400,354 400,355 401,355 401,356 402,356 402,357 403,357 403,358 404,358 404,359 405,359 405,360 406,360 406,361 407,361 407,362 408,362 408,363 409,363 409,364 410,364 410,365 411,365 411,366 412,366 412,367 413,367 413,368 414,368 414,369 415,369 415,370 416,370 416,371 417,371 417,372 418,372 418,373 419,373 419,374 420,374 420,375 421,375 421,376 422,376 422,377 423,377 423,378 424,378 424,379 425,379 425,380 426,380 426,381 427,381 427,382 428,382 428,383 429,383 429,384 430,384 430,385 431,385 431,386 432,386 432,387 433,387 433,388 463,388 463,421 338,421 338,388 349,388 349,389 350,389 350,386 348,386 348,385 347,385 347,384 346,384 346,383 345,383 345,382 344,382 344,381 343,381 343,380 342,380 342,379 341,379 341,378 340,378 340,377 339,377 339,376 338,376 338,375 337,375 337,374 336,374 336,373 335,373 335,372 334,372 334,371 333,371 333,370 332,370 332,369 331,369 331,368 330,368 330,367 329,367 329,366 328,366 328,365 327,365 327,364 326,364 326,363 325,363 325,362 324,362 324,361 323,361 323,360 322,360 322,359 321,359 321,358 320,358 320,357 319,357 319,356 318,356 318,355 317,355 317,354 316,354 316,353 315,353 315,352 314,352 314,351 313,351 313,350 312,350 312,349 311,349 311,348 310,348 310,347 309,347 309,346 308,346 308,345 307,345 307,344 306,344 306,343 305,343 305,342 304,342 304,341 303,341 303,340 302,340 302,339 301,339 301,338 300,338 300,337 z" fill="#00319f" fill-opacity="0.996078431372549" id="x00319f_r0_g49_b159_a0.996078431372549_shape1"/>
    <path d="M 384,309 383,309 383,310 382,310 382,312 383,312 383,313 384,313 384,314 385,314 385,315 386,315 386,316 387,316 387,317 388,317 388,318 389,318 389,319 390,319 390,320 391,320 391,321 392,321 392,322 393,322 393,323 394,323 394,324 395,324 396,324 396,326 397,326 397,327 398,327 398,328 399,328 399,329 401,329 401,331 402,331 402,332 403,332 403,333 404,333 404,334 406,334 406,335 407,335 407,337 408,337 408,338 409,338 409,339 411,339 411,340 412,340 412,342 413,342 413,343 414,343 414,344 416,344 416,345 417,345 417,347 418,347 418,348 419,348 419,349 421,349 421,350 422,350 422,352 423,352 423,353 424,353 424,354 426,354 426,355 427,355 427,357 428,357 428,358 429,358 429,359 431,359 431,360 432,360 432,361 433,361 433,363 434,363 434,364 436,364 436,365 437,365 437,366 438,366 438,368 439,368 439,369 440,369 441,369 441,370 442,370 442,371 446,371 450,371 480,371 480,389 480,430 480,438 476,438 430,438 321,438 321,395 321,383 320,383 320,382 319,382 319,381 318,381 318,380 317,380 317,379 316,379 316,378 315,378 315,377 314,377 314,376 313,376 313,375 312,375 312,374 311,374 311,373 310,373 310,372 309,372 309,371 308,371 308,370 307,370 307,369 306,369 306,368 305,368 305,367 304,367 304,366 303,366 303,365 302,365 302,364 301,364 301,363 300,363 300,362 299,362 299,361 298,361 298,360 297,360 297,359 296,359 296,358 295,358 295,357 294,357 294,356 293,356 293,355 292,355 292,354 269,354 246,354 246,371 271,371 271,438 121,438 121,371 146,371 146,296 87,296 87,295 86,295 86,294 85,294 85,293 84,293 84,292 83,292 83,291 82,291 82,290 81,290 81,289 80,289 80,288 79,288 79,287 78,287 78,286 77,286 77,285 76,285 76,284 75,284 75,283 74,283 74,282 73,282 73,281 72,281 72,280 71,280 71,279 70,279 70,278 69,278 69,277 68,277 68,276 67,276 67,275 66,275 66,274 65,274 65,273 64,273 64,272 63,272 63,271 62,271 62,270 61,270 61,269 60,269 60,268 59,268 59,267 58,267 58,266 57,266 57,265 56,265 56,264 55,264 55,263 54,263 54,262 53,262 53,261 52,261 52,260 51,260 51,259 50,259 50,258 49,258 49,257 48,257 48,256 47,256 47,255 46,255 46,254 45,254 45,129 20,129 20,62 170,62 170,129 145,129 145,187 146,187 146,188 246,188 246,129 222,129 221,129 221,62 257,62 371,62 371,129 346,129 346,188 480,188 480,254 438,254 438,255 437,255 437,256 436,256 436,257 435,257 435,258 434,258 434,259 433,259 433,260 432,260 432,261 431,261 431,262 430,262 430,263 429,263 429,264 428,264 428,265 427,265 427,266 426,266 426,267 425,267 425,268 424,268 424,269 423,269 423,270 422,270 422,271 421,271 421,272 420,272 420,273 419,273 419,274 418,274 418,275 417,275 417,276 416,276 416,277 415,277 415,278 414,278 414,279 413,279 413,280 412,280 412,281 411,281 411,282 410,282 410,283 409,283 409,284 408,284 408,285 407,285 407,286 406,286 406,287 405,287 405,288 404,288 404,289 403,289 403,290 402,290 402,291 401,291 401,292 400,292 400,293 399,293 399,294 398,294 398,295 397,295 397,296 396,296 396,297 395,297 395,298 394,298 394,299 393,299 393,300 392,300 392,301 391,301 391,302 390,302 390,303 389,303 389,304 388,304 388,305 387,305 387,306 386,306 386,307 385,307 385,308 384,308 z M 338,195 338,121 363,121 363,70 229,70 229,121 254,121 254,195 137,195 137,194 138,194 138,122 137,122 137,121 163,121 163,70 28,70 28,121 52,121 52,122 53,122 53,250 54,250 54,251 55,251 55,252 56,252 56,253 57,253 57,254 58,254 58,255 59,255 59,256 60,256 60,257 61,257 61,258 62,258 62,259 63,259 63,260 64,260 64,261 65,261 65,262 66,262 66,263 67,263 67,264 68,264 68,265 69,265 69,266 70,266 70,267 71,267 71,268 72,268 72,269 73,269 73,270 74,270 74,271 75,271 75,272 76,272 76,273 77,273 77,274 78,274 78,275 79,275 79,276 80,276 80,277 81,277 81,278 82,278 82,279 83,279 83,280 84,280 84,281 85,281 85,282 86,282 86,283 87,283 87,284 88,284 88,285 89,285 89,286 90,286 90,287 91,287 91,288 154,288 154,289 153,289 153,378 154,378 154,379 128,379 128,430 263,430 263,379 239,379 239,378 238,378 238,346 239,346 239,347 295,347 295,346 296,346 296,347 297,347 297,348 298,348 298,349 299,349 299,350 300,350 300,351 301,351 301,352 302,352 302,353 303,353 303,354 304,354 304,355 305,355 305,356 306,356 306,357 307,357 307,358 308,358 308,359 309,359 309,360 310,360 310,361 311,361 311,362 312,362 312,363 313,363 313,364 314,364 314,365 315,365 315,366 316,366 316,367 317,367 317,368 318,368 318,369 319,369 319,370 320,370 320,371 321,371 321,372 322,372 322,373 323,373 323,374 324,374 324,375 325,375 325,376 326,376 326,377 327,377 327,378 328,378 328,379 329,379 329,430 472,430 472,379 438,379 438,378 437,378 437,377 436,377 436,376 435,376 435,375 434,375 434,374 433,374 433,373 432,373 432,372 431,372 431,371 430,371 430,370 429,370 429,369 428,369 428,368 427,368 427,367 426,367 426,366 425,366 425,365 424,365 424,364 423,364 423,363 422,363 422,362 421,362 421,361 420,361 420,360 419,360 419,359 418,359 418,358 417,358 417,357 416,357 416,356 415,356 415,355 414,355 414,354 413,354 413,353 412,353 412,352 411,352 411,351 410,351 410,350 409,350 409,349 408,349 408,348 407,348 407,347 406,347 406,346 405,346 405,345 404,345 404,344 403,344 403,343 402,343 402,342 401,342 401,341 400,341 400,340 399,340 399,339 398,339 398,338 397,338 397,337 396,337 396,336 395,336 395,335 394,335 394,334 393,334 393,333 392,333 392,332 391,332 391,331 390,331 390,330 389,330 389,329 388,329 388,328 387,328 387,327 386,327 386,326 385,326 385,325 384,325 384,324 382,324 382,323 381,323 381,321 380,321 380,320 379,320 379,319 377,319 377,318 376,318 376,316 375,316 375,315 374,315 374,314 372,314 372,313 371,313 371,312 370,312 370,311 371,311 371,309 372,309 372,308 373,308 373,307 374,307 374,306 375,306 375,305 376,305 376,304 377,304 377,303 378,303 378,302 379,302 379,301 380,301 380,300 381,300 381,299 382,299 382,298 383,298 383,297 384,297 384,296 385,296 385,295 386,295 386,294 387,294 387,293 388,293 388,292 389,292 389,291 390,291 390,290 391,290 391,289 392,289 392,288 393,288 393,287 394,287 394,286 395,286 395,285 396,285 396,284 397,284 397,283 398,283 398,282 399,282 399,281 400,281 400,280 401,280 401,279 402,279 402,278 403,278 403,277 404,277 404,276 405,276 405,275 406,275 406,274 407,274 407,273 408,273 408,272 409,272 409,271 410,271 410,270 411,270 411,269 412,269 412,268 413,268 413,267 414,267 414,266 415,266 415,265 416,265 416,264 417,264 417,263 418,263 418,262 419,262 419,261 420,261 420,260 421,260 421,259 422,259 422,258 423,258 423,257 424,257 424,256 425,256 425,255 426,255 426,254 427,254 427,253 428,253 428,252 429,252 429,251 430,251 430,250 431,250 431,249 432,249 432,248 433,248 433,247 434,247 434,246 472,246 472,195 z" fill="#00319f" fill-opacity="0.996078431372549" id="x00319f_r0_g49_b159_a0.996078431372549_shape2"/>
    <path d="M 263,112 238,112 238,79 354,79 354,112 329,112 329,246 328,246 328,248 327,248 327,249 326,249 326,250 324,250 324,251 323,251 323,253 322,253 322,254 321,254 321,255 319,255 319,256 318,256 318,258 317,258 317,259 316,259 316,260 314,260 314,261 313,261 313,262 312,262 312,264 311,264 311,265 309,265 309,266 308,266 308,267 307,267 307,269 306,269 306,270 304,270 304,271 303,271 303,272 302,272 302,274 301,274 301,275 299,275 299,276 298,276 298,277 297,277 297,279 264,279 239,279 239,278 238,278 238,246 263,246 263,199 z" fill="#00319f" fill-opacity="0.996078431372549" id="x00319f_r0_g49_b159_a0.996078431372549_shape3"/>
    <path d="M 128,246 154,246 154,247 153,247 153,278 154,278 154,279 95,279 95,278 94,278 94,277 93,277 93,276 92,276 92,275 91,275 91,274 90,274 90,273 89,273 89,272 88,272 88,271 87,271 87,270 86,270 86,269 85,269 85,268 84,268 84,267 83,267 83,266 82,266 82,265 81,265 81,264 80,264 80,263 79,263 79,262 78,262 78,261 77,261 77,260 76,260 76,259 75,259 75,258 74,258 74,257 73,257 73,256 72,256 72,255 71,255 71,254 70,254 70,253 69,253 69,252 68,252 68,251 67,251 67,250 66,250 66,249 65,249 65,248 64,248 64,247 63,247 63,246 62,246 62,112 37,112 37,79 115,79 154,79 154,80 153,80 153,111 154,111 154,112 128,112 z" fill="#00319f" fill-opacity="0.996078431372549" id="x00319f_r0_g49_b159_a0.996078431372549_shape4"/>
  </g>
  <g id="xfcfcfd_r252_g252_b253_a1.0">
    <path d="M 129,429 129,380 154,380 154,287 90,287 90,286 89,286 89,285 88,285 88,284 87,284 87,283 86,283 86,282 85,282 85,281 84,281 84,280 83,280 83,279 82,279 82,278 81,278 81,277 80,277 80,276 79,276 79,275 78,275 78,274 77,274 77,273 76,273 76,272 75,272 75,271 74,271 74,270 73,270 73,269 72,269 72,268 71,268 71,267 70,267 70,266 69,266 69,265 68,265 68,264 67,264 67,263 66,263 66,262 65,262 65,261 64,261 64,260 63,260 63,259 62,259 62,258 61,258 61,257 60,257 60,256 59,256 59,255 58,255 58,254 57,254 57,253 56,253 56,252 55,252 55,251 54,251 54,229 54,199 54,121 53,121 53,120 29,120 29,71 146,71 162,71 162,120 137,120 137,196 193,196 254,196 254,195 255,195 255,121 254,121 254,120 229,120 229,71 342,71 363,71 363,120 338,120 338,196 471,196 471,222 471,246 433,246 433,247 432,247 432,248 431,248 431,249 430,249 430,250 429,250 429,251 428,251 428,252 427,252 427,253 426,253 426,254 425,254 425,255 424,255 424,256 423,256 423,257 422,257 422,258 421,258 421,259 420,259 420,260 419,260 419,261 418,261 418,262 417,262 417,263 416,263 416,264 415,264 415,265 414,265 414,266 413,266 413,267 412,267 412,268 411,268 411,269 410,269 410,270 409,270 409,271 408,271 408,272 407,272 407,273 406,273 406,274 405,274 405,275 404,275 404,276 403,276 403,277 402,277 402,278 401,278 401,279 400,279 400,280 399,280 399,281 398,281 398,282 397,282 397,283 396,283 396,284 395,284 395,285 394,285 394,286 393,286 393,287 392,287 392,288 391,288 391,289 390,289 390,290 389,290 389,291 388,291 388,292 387,292 387,293 386,293 386,294 385,294 385,295 384,295 384,296 383,296 383,297 382,297 382,298 381,298 381,299 380,299 380,300 379,300 379,301 378,301 378,302 377,302 377,303 376,303 376,304 375,304 375,305 374,305 374,306 373,306 373,307 372,307 372,308 371,308 371,309 370,309 370,310 369,310 369,311 370,311 370,312 371,312 371,313 372,313 372,314 373,314 373,315 374,315 374,316 375,316 375,317 376,317 376,318 377,318 377,319 378,319 378,320 379,320 379,321 380,321 380,322 381,322 381,323 382,323 382,324 383,324 383,325 384,325 384,326 385,326 385,327 386,327 386,328 387,328 387,329 388,329 388,330 389,330 389,331 390,331 390,332 391,332 391,333 392,333 392,334 393,334 393,335 394,335 394,336 395,336 395,337 396,337 396,338 397,338 397,339 398,339 398,340 399,340 399,341 400,341 400,342 401,342 401,343 402,343 402,344 403,344 403,345 404,345 404,346 405,346 405,347 406,347 406,348 407,348 407,349 408,349 408,350 409,350 409,351 410,351 410,352 411,352 411,353 412,353 412,354 413,354 413,355 414,355 414,356 415,356 415,357 416,357 416,358 417,358 417,359 418,359 418,360 419,360 419,361 420,361 420,362 421,362 421,363 422,363 422,364 423,364 423,365 424,365 424,366 425,366 425,367 426,367 426,368 427,368 427,369 428,369 428,370 429,370 429,371 430,371 430,372 431,372 431,373 432,373 432,374 433,374 433,375 434,375 434,376 435,376 435,377 436,377 436,378 437,378 437,379 438,379 438,380 471,380 471,429 330,429 330,379 329,379 329,378 328,378 328,377 327,377 327,376 326,376 326,375 325,375 325,374 324,374 324,373 323,373 323,372 322,372 322,371 321,371 321,370 320,370 320,369 319,369 319,368 318,368 318,367 317,367 317,366 316,366 316,365 315,365 315,364 314,364 314,363 313,363 313,362 312,362 312,361 311,361 311,360 310,360 310,359 309,359 309,358 308,358 308,357 307,357 307,356 306,356 306,355 305,355 305,354 304,354 304,353 303,353 303,352 302,352 302,351 301,351 301,350 300,350 300,349 299,349 299,348 298,348 298,347 297,347 297,346 237,346 237,380 262,380 262,412 262,429 z M 337,251 336,251 336,252 335,252 335,253 334,253 334,254 333,254 333,255 332,255 332,256 331,256 331,257 330,257 330,258 329,258 329,259 328,259 328,260 327,260 327,261 326,261 326,262 325,262 325,263 324,263 324,264 323,264 323,265 322,265 322,266 321,266 321,267 320,267 320,268 319,268 319,269 318,269 318,270 317,270 317,271 316,271 316,272 315,272 315,273 314,273 314,274 313,274 313,275 312,275 312,276 311,276 311,277 310,277 310,278 309,278 309,279 308,279 308,280 307,280 307,281 306,281 306,282 305,282 305,283 304,283 304,284 303,284 303,285 302,285 302,286 301,286 301,287 229,287 229,251 229,238 254,238 254,237 255,237 255,204 206,204 137,204 137,238 162,238 162,354 162,388 137,388 137,422 254,422 254,421 255,421 255,388 230,388 230,387 229,387 229,338 301,338 301,339 302,339 302,340 303,340 303,341 304,341 304,342 305,342 305,343 306,343 306,344 307,344 307,345 308,345 308,346 309,346 309,347 310,347 310,348 311,348 311,349 312,349 312,350 313,350 313,351 314,351 314,352 315,352 315,353 316,353 316,354 317,354 317,355 318,355 318,356 319,356 319,357 320,357 320,358 321,358 321,359 322,359 322,360 323,360 323,361 324,361 324,362 325,362 325,363 326,363 326,364 327,364 327,365 328,365 328,366 329,366 329,367 330,367 330,368 331,368 331,369 332,369 332,370 333,370 333,371 334,371 334,372 335,372 335,373 336,373 336,374 337,374 337,375 338,375 338,376 339,376 339,377 340,377 340,378 341,378 341,379 342,379 342,380 343,380 343,381 344,381 344,382 345,382 345,383 346,383 346,384 347,384 347,385 348,385 348,386 349,386 349,388 338,388 338,422 463,422 463,421 464,421 464,388 455,388 434,388 434,387 433,387 433,386 432,386 432,385 431,385 431,384 430,384 430,383 429,383 429,382 428,382 428,381 427,381 427,380 426,380 426,379 425,379 425,378 424,378 424,377 423,377 423,376 422,376 422,375 421,375 421,374 420,374 420,373 419,373 419,372 418,372 418,371 417,371 417,370 416,370 416,369 415,369 415,368 414,368 414,367 413,367 413,366 412,366 412,365 411,365 411,364 410,364 410,363 409,363 409,362 408,362 408,361 407,361 407,360 406,360 406,359 405,359 405,358 404,358 404,357 403,357 403,356 402,356 402,355 401,355 401,354 400,354 400,353 399,353 399,352 398,352 398,351 397,351 397,350 396,350 396,349 395,349 395,348 394,348 394,347 393,347 393,346 392,346 392,345 391,345 391,344 390,344 390,343 389,343 389,342 388,342 388,341 387,341 387,340 386,340 386,339 385,339 385,338 384,338 384,337 383,337 383,336 382,336 382,335 381,335 381,334 380,334 380,333 379,333 379,332 378,332 378,331 377,331 377,330 376,330 376,329 375,329 375,328 374,328 374,327 373,327 373,326 372,326 372,325 371,325 371,324 370,324 370,323 369,323 369,322 368,322 368,321 367,321 367,320 366,320 366,319 365,319 365,318 364,318 364,317 363,317 363,316 362,316 362,315 361,315 361,314 360,314 360,313 359,313 359,312 358,312 358,311 357,311 357,310 358,310 358,309 359,309 359,308 360,308 360,307 361,307 361,306 362,306 362,305 363,305 363,304 364,304 364,303 365,303 365,302 366,302 366,301 367,301 367,300 368,300 368,299 369,299 369,298 370,298 370,297 371,297 371,296 372,296 372,295 373,295 373,294 374,294 374,293 375,293 375,292 376,292 376,291 377,291 377,290 378,290 378,289 379,289 379,288 380,288 380,287 381,287 381,286 382,286 382,285 383,285 383,284 384,284 384,283 385,283 385,282 386,282 386,281 387,281 387,280 388,280 388,279 389,279 389,278 390,278 390,277 391,277 391,276 392,276 392,275 393,275 393,274 394,274 394,273 395,273 395,272 396,272 396,271 397,271 397,270 398,270 398,269 399,269 399,268 400,268 400,267 401,267 401,266 402,266 402,265 403,265 403,264 404,264 404,263 405,263 405,262 406,262 406,261 407,261 407,260 408,260 408,259 409,259 409,258 410,258 410,257 411,257 411,256 412,256 412,255 413,255 413,254 414,254 414,253 415,253 415,252 416,252 416,251 417,251 417,250 418,250 418,249 419,249 419,248 420,248 420,247 421,247 421,246 422,246 422,245 423,245 423,244 424,244 424,243 425,243 425,242 426,242 426,241 427,241 427,240 428,240 428,239 429,239 429,238 464,238 464,204 446,204 338,204 338,238 349,238 349,239 348,239 348,240 347,240 347,241 346,241 346,242 345,242 345,243 344,243 344,244 343,244 343,245 342,245 342,246 341,246 341,247 340,247 340,248 339,248 339,249 338,249 338,250 337,250 z M 36,79 36,112 37,112 37,113 60,113 60,112 61,112 61,113 62,113 62,124 62,247 63,247 63,248 64,248 64,249 65,249 65,250 66,250 66,251 67,251 67,252 68,252 68,253 69,253 69,254 70,254 70,255 71,255 71,256 72,256 72,257 73,257 73,258 74,258 74,259 75,259 75,260 76,260 76,261 77,261 77,262 78,262 78,263 79,263 79,264 80,264 80,265 81,265 81,266 82,266 82,267 83,267 83,268 84,268 84,269 85,269 85,270 86,270 86,271 87,271 87,272 88,272 88,273 89,273 89,274 90,274 90,275 91,275 91,276 92,276 92,277 93,277 93,278 94,278 94,279 95,279 95,280 153,280 154,280 154,246 129,246 129,151 129,112 131,112 131,113 153,113 153,112 154,112 154,79 120,79 z M 238,78 238,79 237,79 237,112 238,112 238,113 261,113 261,112 262,112 262,182 262,246 257,246 239,246 239,245 238,245 238,246 237,246 237,279 238,279 238,280 272,280 296,280 296,279 297,279 297,278 298,278 298,277 299,277 299,276 300,276 300,275 301,275 301,274 302,274 302,273 303,273 303,272 304,272 304,271 305,271 305,270 306,270 306,269 307,269 307,268 308,268 308,267 309,267 309,266 310,266 310,265 311,265 311,264 312,264 312,263 313,263 313,262 314,262 314,261 315,261 315,260 316,260 316,259 317,259 317,258 318,258 318,257 319,257 319,256 320,256 320,255 321,255 321,254 322,254 322,253 323,253 323,252 324,252 324,251 325,251 325,250 326,250 326,249 327,249 327,248 328,248 328,247 329,247 329,246 330,246 330,174 330,112 331,112 331,113 354,113 354,112 355,112 355,79 354,79 354,78 z" fill="#fcfcfd" fill-opacity="1.0" id="xfcfcfd_r252_g252_b253_a1.0_shape1"/>
  </g>
  <g id="x9aafd9_r154_g175_b217_a1.0">
    <path d="M 330,430 330,429 469,429 471,429 471,430 468,430 z" fill="#9aafd9" fill-opacity="1.0" id="x9aafd9_r154_g175_b217_a1.0_shape1"/>
    <path d="M 129,430 129,429 262,429 262,430 z" fill="#9aafd9" fill-opacity="1.0" id="x9aafd9_r154_g175_b217_a1.0_shape2"/>
    <path d="M 263,245 262,245 262,113 263,113 z" fill="#9aafd9" fill-opacity="1.0" id="x9aafd9_r154_g175_b217_a1.0_shape3"/>
    <path d="M 463,421 463,422 392,422 338,422 338,421 364,421 z" fill="#9aafd9" fill-opacity="1.0" id="x9aafd9_r154_g175_b217_a1.0_shape4"/>
    <path d="M 138,422 138,421 213,421 254,421 254,422 222,422 z" fill="#9aafd9" fill-opacity="1.0" id="x9aafd9_r154_g175_b217_a1.0_shape5"/>
    <path d="M 254,121 255,121 255,187 255,195 254,195 254,190 z" fill="#9aafd9" fill-opacity="1.0" id="x9aafd9_r154_g175_b217_a1.0_shape6"/>
    <path d="M 231,288 231,287 299,287 299,288 z" fill="#9aafd9" fill-opacity="1.0" id="x9aafd9_r154_g175_b217_a1.0_shape7"/>
    <path d="M 91,288 91,287 154,287 154,288 z" fill="#9aafd9" fill-opacity="1.0" id="x9aafd9_r154_g175_b217_a1.0_shape8"/>
    <path d="M 95,280 95,279 154,279 154,280 z" fill="#9aafd9" fill-opacity="1.0" id="x9aafd9_r154_g175_b217_a1.0_shape9"/>
    <path d="M 296,279 296,280 258,280 238,280 238,279 255,279 z" fill="#9aafd9" fill-opacity="1.0" id="x9aafd9_r154_g175_b217_a1.0_shape10"/>
    <path d="M 471,196 472,196 472,224 472,245 471,245 471,232 z" fill="#9aafd9" fill-opacity="1.0" id="x9aafd9_r154_g175_b217_a1.0_shape11"/>
    <path d="M 263,429 262,429 262,391 262,380 263,380 263,386 z" fill="#9aafd9" fill-opacity="1.0" id="x9aafd9_r154_g175_b217_a1.0_shape12"/>
    <path d="M 471,380 472,380 472,429 471,429 z" fill="#9aafd9" fill-opacity="1.0" id="x9aafd9_r154_g175_b217_a1.0_shape13"/>
    <path d="M 463,204 464,204 464,237 463,237 z" fill="#9aafd9" fill-opacity="1.0" id="x9aafd9_r154_g175_b217_a1.0_shape14"/>
    <path d="M 254,388 255,388 255,421 254,421 z" fill="#9aafd9" fill-opacity="1.0" id="x9aafd9_r154_g175_b217_a1.0_shape15"/>
    <path d="M 464,421 463,421 463,409 463,388 464,388 464,393 z" fill="#9aafd9" fill-opacity="1.0" id="x9aafd9_r154_g175_b217_a1.0_shape16"/>
    <path d="M 254,205 255,205 255,237 254,237 z" fill="#9aafd9" fill-opacity="1.0" id="x9aafd9_r154_g175_b217_a1.0_shape17"/>
    <path d="M 162,120 162,121 137,121 137,120 z" fill="#9aafd9" fill-opacity="1.0" id="x9aafd9_r154_g175_b217_a1.0_shape18"/>
    <path d="M 363,120 363,121 338,121 338,120 z" fill="#9aafd9" fill-opacity="1.0" id="x9aafd9_r154_g175_b217_a1.0_shape19"/>
    <path d="M 30,121 30,120 53,120 53,121 z" fill="#9aafd9" fill-opacity="1.0" id="x9aafd9_r154_g175_b217_a1.0_shape20"/>
    <path d="M 254,120 254,121 237,121 231,121 231,120 232,120 z" fill="#9aafd9" fill-opacity="1.0" id="x9aafd9_r154_g175_b217_a1.0_shape21"/>
    <path d="M 350,239 349,239 349,238 348,238 348,237 350,237 z" fill="#9aafd9" fill-opacity="1.0" id="x9aafd9_r154_g175_b217_a1.0_shape22"/>
    <path d="M 28,71 29,71 29,72 29,73 28,73 28,72 z" fill="#9aafd9" fill-opacity="1.0" id="x9aafd9_r154_g175_b217_a1.0_shape23"/>
    <path d="M 131,380 129,380 129,379 131,379 z" fill="#9aafd9" fill-opacity="1.0" id="x9aafd9_r154_g175_b217_a1.0_shape24"/>
    <path d="M 30,71 29,71 29,70 30,70 z" fill="#9aafd9" fill-opacity="1.0" id="x9aafd9_r154_g175_b217_a1.0_shape25"/>
    <path d="M 239,78 239,79 238,79 238,78 z" fill="#9aafd9" fill-opacity="1.0" id="x9aafd9_r154_g175_b217_a1.0_shape26"/>
    <path d="M 353,78 354,78 354,79 353,79 z" fill="#9aafd9" fill-opacity="1.0" id="x9aafd9_r154_g175_b217_a1.0_shape27"/>
    <path d="M 62,112 62,113 61,113 61,112 z" fill="#9aafd9" fill-opacity="1.0" id="x9aafd9_r154_g175_b217_a1.0_shape28"/>
    <path d="M 239,112 239,113 238,113 238,112 z" fill="#9aafd9" fill-opacity="1.0" id="x9aafd9_r154_g175_b217_a1.0_shape29"/>
    <path d="M 353,112 354,112 354,113 353,113 z" fill="#9aafd9" fill-opacity="1.0" id="x9aafd9_r154_g175_b217_a1.0_shape30"/>
    <path d="M 329,113 330,113 330,114 329,114 z" fill="#9aafd9" fill-opacity="1.0" id="x9aafd9_r154_g175_b217_a1.0_shape31"/>
    <path d="M 28,120 28,119 29,119 29,120 z" fill="#9aafd9" fill-opacity="1.0" id="x9aafd9_r154_g175_b217_a1.0_shape32"/>
    <path d="M 138,238 137,238 137,237 138,237 z" fill="#9aafd9" fill-opacity="1.0" id="x9aafd9_r154_g175_b217_a1.0_shape33"/>
    <path d="M 330,246 329,246 329,245 330,245 z" fill="#9aafd9" fill-opacity="1.0" id="x9aafd9_r154_g175_b217_a1.0_shape34"/>
    <path d="M 67,251 66,251 66,250 67,250 z" fill="#9aafd9" fill-opacity="1.0" id="x9aafd9_r154_g175_b217_a1.0_shape35"/>
    <path d="M 71,256 71,255 72,255 72,256 z" fill="#9aafd9" fill-opacity="1.0" id="x9aafd9_r154_g175_b217_a1.0_shape36"/>
    <path d="M 76,261 76,260 77,260 77,261 z" fill="#9aafd9" fill-opacity="1.0" id="x9aafd9_r154_g175_b217_a1.0_shape37"/>
    <path d="M 81,265 82,265 82,266 81,266 z" fill="#9aafd9" fill-opacity="1.0" id="x9aafd9_r154_g175_b217_a1.0_shape38"/>
    <path d="M 87,271 86,271 86,270 87,270 z" fill="#9aafd9" fill-opacity="1.0" id="x9aafd9_r154_g175_b217_a1.0_shape39"/>
    <path d="M 88,272 87,272 87,271 88,271 z" fill="#9aafd9" fill-opacity="1.0" id="x9aafd9_r154_g175_b217_a1.0_shape40"/>
    <path d="M 92,276 91,276 91,275 92,275 z" fill="#9aafd9" fill-opacity="1.0" id="x9aafd9_r154_g175_b217_a1.0_shape41"/>
    <path d="M 93,276 93,277 92,277 92,276 z" fill="#9aafd9" fill-opacity="1.0" id="x9aafd9_r154_g175_b217_a1.0_shape42"/>
    <path d="M 237,347 237,346 238,346 238,347 z" fill="#9aafd9" fill-opacity="1.0" id="x9aafd9_r154_g175_b217_a1.0_shape43"/>
    <path d="M 298,347 298,348 297,348 297,347 z" fill="#9aafd9" fill-opacity="1.0" id="x9aafd9_r154_g175_b217_a1.0_shape44"/>
    <path d="M 299,349 298,349 298,348 299,348 z" fill="#9aafd9" fill-opacity="1.0" id="x9aafd9_r154_g175_b217_a1.0_shape45"/>
    <path d="M 304,354 303,354 303,353 304,353 z" fill="#9aafd9" fill-opacity="1.0" id="x9aafd9_r154_g175_b217_a1.0_shape46"/>
    <path d="M 308,359 308,358 309,358 309,359 z" fill="#9aafd9" fill-opacity="1.0" id="x9aafd9_r154_g175_b217_a1.0_shape47"/>
    <path d="M 312,363 312,362 313,362 313,363 z" fill="#9aafd9" fill-opacity="1.0" id="x9aafd9_r154_g175_b217_a1.0_shape48"/>
    <path d="M 313,364 313,363 314,363 314,364 z" fill="#9aafd9" fill-opacity="1.0" id="x9aafd9_r154_g175_b217_a1.0_shape49"/>
    <path d="M 319,368 319,369 318,369 318,368 z" fill="#9aafd9" fill-opacity="1.0" id="x9aafd9_r154_g175_b217_a1.0_shape50"/>
    <path d="M 324,373 324,374 323,374 323,373 z" fill="#9aafd9" fill-opacity="1.0" id="x9aafd9_r154_g175_b217_a1.0_shape51"/>
    <path d="M 154,379 154,380 153,380 153,379 z" fill="#9aafd9" fill-opacity="1.0" id="x9aafd9_r154_g175_b217_a1.0_shape52"/>
    <path d="M 262,379 262,380 261,380 261,379 z" fill="#9aafd9" fill-opacity="1.0" id="x9aafd9_r154_g175_b217_a1.0_shape53"/>
    <path d="M 330,379 330,380 329,380 329,379 z" fill="#9aafd9" fill-opacity="1.0" id="x9aafd9_r154_g175_b217_a1.0_shape54"/>
    <path d="M 438,380 438,379 439,379 439,380 z" fill="#9aafd9" fill-opacity="1.0" id="x9aafd9_r154_g175_b217_a1.0_shape55"/>
    <path d="M 470,379 471,379 471,380 470,380 z" fill="#9aafd9" fill-opacity="1.0" id="x9aafd9_r154_g175_b217_a1.0_shape56"/>
    <path d="M 229,387 230,387 230,388 229,388 z" fill="#9aafd9" fill-opacity="1.0" id="x9aafd9_r154_g175_b217_a1.0_shape57"/>
    <path d="M 330,428 330,429 329,429 329,428 z" fill="#9aafd9" fill-opacity="1.0" id="x9aafd9_r154_g175_b217_a1.0_shape58"/>
  </g>
  <g id="x2952ae_r41_g82_b174_a1.0">
    <path d="M 163,388 162,388 162,255 162,237 163,237 163,253 z" fill="#2952ae" fill-opacity="1.0" id="x2952ae_r41_g82_b174_a1.0_shape1"/>
    <path d="M 128,112 129,112 129,233 129,246 128,246 128,233 z" fill="#2952ae" fill-opacity="1.0" id="x2952ae_r41_g82_b174_a1.0_shape2"/>
    <path d="M 462,204 462,205 338,205 338,204 z" fill="#2952ae" fill-opacity="1.0" id="x2952ae_r41_g82_b174_a1.0_shape3"/>
    <path d="M 139,205 139,204 253,204 253,205 z" fill="#2952ae" fill-opacity="1.0" id="x2952ae_r41_g82_b174_a1.0_shape4"/>
    <path d="M 153,289 154,289 154,378 153,378 z" fill="#2952ae" fill-opacity="1.0" id="x2952ae_r41_g82_b174_a1.0_shape5"/>
    <path d="M 137,122 138,122 138,194 137,194 z" fill="#2952ae" fill-opacity="1.0" id="x2952ae_r41_g82_b174_a1.0_shape6"/>
    <path d="M 300,337 300,338 229,338 229,337 z" fill="#2952ae" fill-opacity="1.0" id="x2952ae_r41_g82_b174_a1.0_shape7"/>
    <path d="M 295,346 295,347 264,347 239,347 239,346 252,346 z" fill="#2952ae" fill-opacity="1.0" id="x2952ae_r41_g82_b174_a1.0_shape8"/>
    <path d="M 162,70 163,70 163,121 162,121 z" fill="#2952ae" fill-opacity="1.0" id="x2952ae_r41_g82_b174_a1.0_shape9"/>
    <path d="M 129,430 128,430 128,379 129,379 z" fill="#2952ae" fill-opacity="1.0" id="x2952ae_r41_g82_b174_a1.0_shape10"/>
    <path d="M 138,388 138,420 137,420 137,388 z" fill="#2952ae" fill-opacity="1.0" id="x2952ae_r41_g82_b174_a1.0_shape11"/>
    <path d="M 153,80 154,80 154,107 154,111 153,111 153,102 z" fill="#2952ae" fill-opacity="1.0" id="x2952ae_r41_g82_b174_a1.0_shape12"/>
    <path d="M 153,247 154,247 154,264 154,278 153,278 153,271 z" fill="#2952ae" fill-opacity="1.0" id="x2952ae_r41_g82_b174_a1.0_shape13"/>
    <path d="M 138,206 138,236 137,236 137,206 z" fill="#2952ae" fill-opacity="1.0" id="x2952ae_r41_g82_b174_a1.0_shape14"/>
    <path d="M 340,195 340,196 339,196 338,196 338,195 339,195 z" fill="#2952ae" fill-opacity="1.0" id="x2952ae_r41_g82_b174_a1.0_shape15"/>
    <path d="M 28,71 28,70 29,70 29,71 z" fill="#2952ae" fill-opacity="1.0" id="x2952ae_r41_g82_b174_a1.0_shape16"/>
    <path d="M 139,195 139,196 138,196 138,195 z" fill="#2952ae" fill-opacity="1.0" id="x2952ae_r41_g82_b174_a1.0_shape17"/>
    <path d="M 254,195 254,196 253,196 253,195 z" fill="#2952ae" fill-opacity="1.0" id="x2952ae_r41_g82_b174_a1.0_shape18"/>
    <path d="M 472,196 471,196 471,195 472,195 z" fill="#2952ae" fill-opacity="1.0" id="x2952ae_r41_g82_b174_a1.0_shape19"/>
    <path d="M 429,238 429,237 430,237 430,238 z" fill="#2952ae" fill-opacity="1.0" id="x2952ae_r41_g82_b174_a1.0_shape20"/>
    <path d="M 329,247 328,247 328,246 329,246 z" fill="#2952ae" fill-opacity="1.0" id="x2952ae_r41_g82_b174_a1.0_shape21"/>
    <path d="M 418,249 418,250 417,250 417,249 z" fill="#2952ae" fill-opacity="1.0" id="x2952ae_r41_g82_b174_a1.0_shape22"/>
    <path d="M 324,250 325,250 325,251 324,251 z" fill="#2952ae" fill-opacity="1.0" id="x2952ae_r41_g82_b174_a1.0_shape23"/>
    <path d="M 324,252 323,252 323,251 324,251 z" fill="#2952ae" fill-opacity="1.0" id="x2952ae_r41_g82_b174_a1.0_shape24"/>
    <path d="M 413,254 413,255 412,255 412,254 z" fill="#2952ae" fill-opacity="1.0" id="x2952ae_r41_g82_b174_a1.0_shape25"/>
    <path d="M 319,255 320,255 320,256 319,256 z" fill="#2952ae" fill-opacity="1.0" id="x2952ae_r41_g82_b174_a1.0_shape26"/>
    <path d="M 412,256 411,256 411,255 412,255 z" fill="#2952ae" fill-opacity="1.0" id="x2952ae_r41_g82_b174_a1.0_shape27"/>
    <path d="M 319,257 318,257 318,256 319,256 z" fill="#2952ae" fill-opacity="1.0" id="x2952ae_r41_g82_b174_a1.0_shape28"/>
    <path d="M 408,259 408,260 407,260 407,259 z" fill="#2952ae" fill-opacity="1.0" id="x2952ae_r41_g82_b174_a1.0_shape29"/>
    <path d="M 315,261 314,261 314,260 315,260 z" fill="#2952ae" fill-opacity="1.0" id="x2952ae_r41_g82_b174_a1.0_shape30"/>
    <path d="M 406,261 406,260 407,260 407,261 z" fill="#2952ae" fill-opacity="1.0" id="x2952ae_r41_g82_b174_a1.0_shape31"/>
    <path d="M 313,261 314,261 314,262 313,262 z" fill="#2952ae" fill-opacity="1.0" id="x2952ae_r41_g82_b174_a1.0_shape32"/>
    <path d="M 312,262 313,262 313,263 312,263 z" fill="#2952ae" fill-opacity="1.0" id="x2952ae_r41_g82_b174_a1.0_shape33"/>
    <path d="M 403,264 403,265 402,265 402,264 z" fill="#2952ae" fill-opacity="1.0" id="x2952ae_r41_g82_b174_a1.0_shape34"/>
    <path d="M 309,266 309,265 310,265 310,266 z" fill="#2952ae" fill-opacity="1.0" id="x2952ae_r41_g82_b174_a1.0_shape35"/>
    <path d="M 402,266 401,266 401,265 402,265 z" fill="#2952ae" fill-opacity="1.0" id="x2952ae_r41_g82_b174_a1.0_shape36"/>
    <path d="M 309,267 308,267 308,266 309,266 z" fill="#2952ae" fill-opacity="1.0" id="x2952ae_r41_g82_b174_a1.0_shape37"/>
    <path d="M 307,268 307,267 308,267 308,268 z" fill="#2952ae" fill-opacity="1.0" id="x2952ae_r41_g82_b174_a1.0_shape38"/>
    <path d="M 397,270 397,269 398,269 398,270 z" fill="#2952ae" fill-opacity="1.0" id="x2952ae_r41_g82_b174_a1.0_shape39"/>
    <path d="M 304,271 304,270 305,270 305,271 z" fill="#2952ae" fill-opacity="1.0" id="x2952ae_r41_g82_b174_a1.0_shape40"/>
    <path d="M 397,271 396,271 396,270 397,270 z" fill="#2952ae" fill-opacity="1.0" id="x2952ae_r41_g82_b174_a1.0_shape41"/>
    <path d="M 303,272 303,271 304,271 304,272 z" fill="#2952ae" fill-opacity="1.0" id="x2952ae_r41_g82_b174_a1.0_shape42"/>
    <path d="M 303,273 302,273 302,272 303,272 z" fill="#2952ae" fill-opacity="1.0" id="x2952ae_r41_g82_b174_a1.0_shape43"/>
    <path d="M 392,275 392,274 393,274 393,275 z" fill="#2952ae" fill-opacity="1.0" id="x2952ae_r41_g82_b174_a1.0_shape44"/>
    <path d="M 299,276 299,275 300,275 300,276 z" fill="#2952ae" fill-opacity="1.0" id="x2952ae_r41_g82_b174_a1.0_shape45"/>
    <path d="M 391,275 392,275 392,276 391,276 z" fill="#2952ae" fill-opacity="1.0" id="x2952ae_r41_g82_b174_a1.0_shape46"/>
    <path d="M 299,277 298,277 298,276 299,276 z" fill="#2952ae" fill-opacity="1.0" id="x2952ae_r41_g82_b174_a1.0_shape47"/>
    <path d="M 390,276 391,276 391,277 390,277 z" fill="#2952ae" fill-opacity="1.0" id="x2952ae_r41_g82_b174_a1.0_shape48"/>
    <path d="M 297,278 297,277 298,277 298,278 z" fill="#2952ae" fill-opacity="1.0" id="x2952ae_r41_g82_b174_a1.0_shape49"/>
    <path d="M 388,280 387,280 387,279 388,279 z" fill="#2952ae" fill-opacity="1.0" id="x2952ae_r41_g82_b174_a1.0_shape50"/>
    <path d="M 386,280 387,280 387,281 386,281 z" fill="#2952ae" fill-opacity="1.0" id="x2952ae_r41_g82_b174_a1.0_shape51"/>
    <path d="M 386,281 386,282 385,282 385,281 z" fill="#2952ae" fill-opacity="1.0" id="x2952ae_r41_g82_b174_a1.0_shape52"/>
    <path d="M 382,284 383,284 383,285 382,285 z" fill="#2952ae" fill-opacity="1.0" id="x2952ae_r41_g82_b174_a1.0_shape53"/>
    <path d="M 381,285 382,285 382,286 381,286 z" fill="#2952ae" fill-opacity="1.0" id="x2952ae_r41_g82_b174_a1.0_shape54"/>
    <path d="M 380,286 381,286 381,287 380,287 z" fill="#2952ae" fill-opacity="1.0" id="x2952ae_r41_g82_b174_a1.0_shape55"/>
    <path d="M 377,290 377,289 378,289 378,290 z" fill="#2952ae" fill-opacity="1.0" id="x2952ae_r41_g82_b174_a1.0_shape56"/>
    <path d="M 376,291 376,290 377,290 377,291 z" fill="#2952ae" fill-opacity="1.0" id="x2952ae_r41_g82_b174_a1.0_shape57"/>
    <path d="M 375,291 376,291 376,292 375,292 z" fill="#2952ae" fill-opacity="1.0" id="x2952ae_r41_g82_b174_a1.0_shape58"/>
    <path d="M 373,294 373,295 372,295 372,294 z" fill="#2952ae" fill-opacity="1.0" id="x2952ae_r41_g82_b174_a1.0_shape59"/>
    <path d="M 372,296 371,296 371,295 372,295 z" fill="#2952ae" fill-opacity="1.0" id="x2952ae_r41_g82_b174_a1.0_shape60"/>
    <path d="M 371,296 371,297 370,297 370,296 z" fill="#2952ae" fill-opacity="1.0" id="x2952ae_r41_g82_b174_a1.0_shape61"/>
    <path d="M 369,297 370,297 370,298 369,298 z" fill="#2952ae" fill-opacity="1.0" id="x2952ae_r41_g82_b174_a1.0_shape62"/>
    <path d="M 368,300 367,300 367,299 368,299 z" fill="#2952ae" fill-opacity="1.0" id="x2952ae_r41_g82_b174_a1.0_shape63"/>
    <path d="M 366,301 366,300 367,300 367,301 z" fill="#2952ae" fill-opacity="1.0" id="x2952ae_r41_g82_b174_a1.0_shape64"/>
    <path d="M 365,302 365,301 366,301 366,302 z" fill="#2952ae" fill-opacity="1.0" id="x2952ae_r41_g82_b174_a1.0_shape65"/>
    <path d="M 365,303 364,303 364,302 365,302 z" fill="#2952ae" fill-opacity="1.0" id="x2952ae_r41_g82_b174_a1.0_shape66"/>
    <path d="M 362,305 362,304 363,304 363,305 z" fill="#2952ae" fill-opacity="1.0" id="x2952ae_r41_g82_b174_a1.0_shape67"/>
    <path d="M 361,306 361,305 362,305 362,306 z" fill="#2952ae" fill-opacity="1.0" id="x2952ae_r41_g82_b174_a1.0_shape68"/>
    <path d="M 361,306 361,307 360,307 360,306 z" fill="#2952ae" fill-opacity="1.0" id="x2952ae_r41_g82_b174_a1.0_shape69"/>
    <path d="M 360,308 359,308 359,307 360,307 z" fill="#2952ae" fill-opacity="1.0" id="x2952ae_r41_g82_b174_a1.0_shape70"/>
    <path d="M 357,310 357,309 358,309 358,310 z" fill="#2952ae" fill-opacity="1.0" id="x2952ae_r41_g82_b174_a1.0_shape71"/>
    <path d="M 373,315 373,314 374,314 374,315 z" fill="#2952ae" fill-opacity="1.0" id="x2952ae_r41_g82_b174_a1.0_shape72"/>
    <path d="M 375,315 375,316 374,316 374,315 z" fill="#2952ae" fill-opacity="1.0" id="x2952ae_r41_g82_b174_a1.0_shape73"/>
    <path d="M 375,316 376,316 376,317 375,317 z" fill="#2952ae" fill-opacity="1.0" id="x2952ae_r41_g82_b174_a1.0_shape74"/>
    <path d="M 379,320 378,320 378,319 379,319 z" fill="#2952ae" fill-opacity="1.0" id="x2952ae_r41_g82_b174_a1.0_shape75"/>
    <path d="M 380,320 380,321 379,321 379,320 z" fill="#2952ae" fill-opacity="1.0" id="x2952ae_r41_g82_b174_a1.0_shape76"/>
    <path d="M 381,321 381,322 380,322 380,321 z" fill="#2952ae" fill-opacity="1.0" id="x2952ae_r41_g82_b174_a1.0_shape77"/>
    <path d="M 384,325 383,325 383,324 384,324 z" fill="#2952ae" fill-opacity="1.0" id="x2952ae_r41_g82_b174_a1.0_shape78"/>
    <path d="M 385,325 385,326 384,326 384,325 z" fill="#2952ae" fill-opacity="1.0" id="x2952ae_r41_g82_b174_a1.0_shape79"/>
    <path d="M 386,326 386,327 385,327 385,326 z" fill="#2952ae" fill-opacity="1.0" id="x2952ae_r41_g82_b174_a1.0_shape80"/>
    <path d="M 386,327 387,327 387,328 386,328 z" fill="#2952ae" fill-opacity="1.0" id="x2952ae_r41_g82_b174_a1.0_shape81"/>
    <path d="M 388,329 387,329 387,328 388,328 z" fill="#2952ae" fill-opacity="1.0" id="x2952ae_r41_g82_b174_a1.0_shape82"/>
    <path d="M 388,329 389,329 389,330 388,330 z" fill="#2952ae" fill-opacity="1.0" id="x2952ae_r41_g82_b174_a1.0_shape83"/>
    <path d="M 389,331 389,330 390,330 390,331 z" fill="#2952ae" fill-opacity="1.0" id="x2952ae_r41_g82_b174_a1.0_shape84"/>
    <path d="M 391,331 391,332 390,332 390,331 z" fill="#2952ae" fill-opacity="1.0" id="x2952ae_r41_g82_b174_a1.0_shape85"/>
    <path d="M 391,332 392,332 392,333 391,333 z" fill="#2952ae" fill-opacity="1.0" id="x2952ae_r41_g82_b174_a1.0_shape86"/>
    <path d="M 392,333 393,333 393,334 392,334 z" fill="#2952ae" fill-opacity="1.0" id="x2952ae_r41_g82_b174_a1.0_shape87"/>
    <path d="M 394,335 393,335 393,334 394,334 z" fill="#2952ae" fill-opacity="1.0" id="x2952ae_r41_g82_b174_a1.0_shape88"/>
    <path d="M 395,336 394,336 394,335 395,335 z" fill="#2952ae" fill-opacity="1.0" id="x2952ae_r41_g82_b174_a1.0_shape89"/>
    <path d="M 395,337 395,336 396,336 396,337 z" fill="#2952ae" fill-opacity="1.0" id="x2952ae_r41_g82_b174_a1.0_shape90"/>
    <path d="M 397,338 396,338 396,337 397,337 z" fill="#2952ae" fill-opacity="1.0" id="x2952ae_r41_g82_b174_a1.0_shape91"/>
    <path d="M 398,338 398,339 397,339 397,338 z" fill="#2952ae" fill-opacity="1.0" id="x2952ae_r41_g82_b174_a1.0_shape92"/>
    <path d="M 399,339 399,340 398,340 398,339 z" fill="#2952ae" fill-opacity="1.0" id="x2952ae_r41_g82_b174_a1.0_shape93"/>
    <path d="M 400,341 399,341 399,340 400,340 z" fill="#2952ae" fill-opacity="1.0" id="x2952ae_r41_g82_b174_a1.0_shape94"/>
    <path d="M 401,342 400,342 400,341 401,341 z" fill="#2952ae" fill-opacity="1.0" id="x2952ae_r41_g82_b174_a1.0_shape95"/>
    <path d="M 402,342 402,343 401,343 401,342 z" fill="#2952ae" fill-opacity="1.0" id="x2952ae_r41_g82_b174_a1.0_shape96"/>
    <path d="M 402,343 403,343 403,344 402,344 z" fill="#2952ae" fill-opacity="1.0" id="x2952ae_r41_g82_b174_a1.0_shape97"/>
    <path d="M 404,344 404,345 403,345 403,344 z" fill="#2952ae" fill-opacity="1.0" id="x2952ae_r41_g82_b174_a1.0_shape98"/>
    <path d="M 405,346 404,346 404,345 405,345 z" fill="#2952ae" fill-opacity="1.0" id="x2952ae_r41_g82_b174_a1.0_shape99"/>
    <path d="M 405,347 405,346 406,346 406,347 z" fill="#2952ae" fill-opacity="1.0" id="x2952ae_r41_g82_b174_a1.0_shape100"/>
    <path d="M 407,347 407,348 406,348 406,347 z" fill="#2952ae" fill-opacity="1.0" id="x2952ae_r41_g82_b174_a1.0_shape101"/>
    <path d="M 408,348 408,349 407,349 407,348 z" fill="#2952ae" fill-opacity="1.0" id="x2952ae_r41_g82_b174_a1.0_shape102"/>
    <path d="M 408,349 409,349 409,350 408,350 z" fill="#2952ae" fill-opacity="1.0" id="x2952ae_r41_g82_b174_a1.0_shape103"/>
    <path d="M 409,351 409,350 410,350 410,351 z" fill="#2952ae" fill-opacity="1.0" id="x2952ae_r41_g82_b174_a1.0_shape104"/>
    <path d="M 410,351 411,351 411,352 410,352 z" fill="#2952ae" fill-opacity="1.0" id="x2952ae_r41_g82_b174_a1.0_shape105"/>
    <path d="M 412,352 412,353 411,353 411,352 z" fill="#2952ae" fill-opacity="1.0" id="x2952ae_r41_g82_b174_a1.0_shape106"/>
    <path d="M 413,353 413,354 412,354 412,353 z" fill="#2952ae" fill-opacity="1.0" id="x2952ae_r41_g82_b174_a1.0_shape107"/>
    <path d="M 413,354 414,354 414,355 413,355 z" fill="#2952ae" fill-opacity="1.0" id="x2952ae_r41_g82_b174_a1.0_shape108"/>
    <path d="M 414,356 414,355 415,355 415,356 z" fill="#2952ae" fill-opacity="1.0" id="x2952ae_r41_g82_b174_a1.0_shape109"/>
    <path d="M 416,357 415,357 415,356 416,356 z" fill="#2952ae" fill-opacity="1.0" id="x2952ae_r41_g82_b174_a1.0_shape110"/>
    <path d="M 416,358 416,357 417,357 417,358 z" fill="#2952ae" fill-opacity="1.0" id="x2952ae_r41_g82_b174_a1.0_shape111"/>
    <path d="M 418,358 418,359 417,359 417,358 z" fill="#2952ae" fill-opacity="1.0" id="x2952ae_r41_g82_b174_a1.0_shape112"/>
    <path d="M 419,360 418,360 418,359 419,359 z" fill="#2952ae" fill-opacity="1.0" id="x2952ae_r41_g82_b174_a1.0_shape113"/>
    <path d="M 419,360 420,360 420,361 419,361 z" fill="#2952ae" fill-opacity="1.0" id="x2952ae_r41_g82_b174_a1.0_shape114"/>
    <path d="M 420,362 420,361 421,361 421,362 z" fill="#2952ae" fill-opacity="1.0" id="x2952ae_r41_g82_b174_a1.0_shape115"/>
    <path d="M 422,363 421,363 421,362 422,362 z" fill="#2952ae" fill-opacity="1.0" id="x2952ae_r41_g82_b174_a1.0_shape116"/>
    <path d="M 422,364 422,363 423,363 423,364 z" fill="#2952ae" fill-opacity="1.0" id="x2952ae_r41_g82_b174_a1.0_shape117"/>
    <path d="M 424,365 423,365 423,364 424,364 z" fill="#2952ae" fill-opacity="1.0" id="x2952ae_r41_g82_b174_a1.0_shape118"/>
    <path d="M 425,365 425,366 424,366 424,365 z" fill="#2952ae" fill-opacity="1.0" id="x2952ae_r41_g82_b174_a1.0_shape119"/>
    <path d="M 426,367 425,367 425,366 426,366 z" fill="#2952ae" fill-opacity="1.0" id="x2952ae_r41_g82_b174_a1.0_shape120"/>
    <path d="M 427,367 427,368 426,368 426,367 z" fill="#2952ae" fill-opacity="1.0" id="x2952ae_r41_g82_b174_a1.0_shape121"/>
    <path d="M 428,369 427,369 427,368 428,368 z" fill="#2952ae" fill-opacity="1.0" id="x2952ae_r41_g82_b174_a1.0_shape122"/>
    <path d="M 428,370 428,369 429,369 429,370 z" fill="#2952ae" fill-opacity="1.0" id="x2952ae_r41_g82_b174_a1.0_shape123"/>
    <path d="M 429,370 430,370 430,371 429,371 z" fill="#2952ae" fill-opacity="1.0" id="x2952ae_r41_g82_b174_a1.0_shape124"/>
    <path d="M 430,371 431,371 431,372 430,372 z" fill="#2952ae" fill-opacity="1.0" id="x2952ae_r41_g82_b174_a1.0_shape125"/>
    <path d="M 432,372 432,373 431,373 431,372 z" fill="#2952ae" fill-opacity="1.0" id="x2952ae_r41_g82_b174_a1.0_shape126"/>
    <path d="M 433,375 433,374 434,374 434,375 z" fill="#2952ae" fill-opacity="1.0" id="x2952ae_r41_g82_b174_a1.0_shape127"/>
    <path d="M 435,376 434,376 434,375 435,375 z" fill="#2952ae" fill-opacity="1.0" id="x2952ae_r41_g82_b174_a1.0_shape128"/>
    <path d="M 435,377 435,376 436,376 436,377 z" fill="#2952ae" fill-opacity="1.0" id="x2952ae_r41_g82_b174_a1.0_shape129"/>
    <path d="M 437,377 437,378 436,378 436,377 z" fill="#2952ae" fill-opacity="1.0" id="x2952ae_r41_g82_b174_a1.0_shape130"/>
    <path d="M 350,387 349,387 349,386 350,386 z" fill="#2952ae" fill-opacity="1.0" id="x2952ae_r41_g82_b174_a1.0_shape131"/>
    <path d="M 349,388 350,388 350,389 349,389 z" fill="#2952ae" fill-opacity="1.0" id="x2952ae_r41_g82_b174_a1.0_shape132"/>
  </g>
  <g id="x7591cb_r117_g145_b203_a1.0">
    <path d="M 230,71 230,70 356,70 363,70 363,71 356,71 z" fill="#7591cb" fill-opacity="1.0" id="x7591cb_r117_g145_b203_a1.0_shape1"/>
    <path d="M 162,70 162,71 30,71 30,70 z" fill="#7591cb" fill-opacity="1.0" id="x7591cb_r117_g145_b203_a1.0_shape2"/>
    <path d="M 330,245 329,245 329,114 330,114 z" fill="#7591cb" fill-opacity="1.0" id="x7591cb_r117_g145_b203_a1.0_shape3"/>
    <path d="M 53,122 54,122 54,197 54,250 53,250 53,199 z" fill="#7591cb" fill-opacity="1.0" id="x7591cb_r117_g145_b203_a1.0_shape4"/>
    <path d="M 330,400 330,428 329,428 329,400 329,380 330,380 z" fill="#7591cb" fill-opacity="1.0" id="x7591cb_r117_g145_b203_a1.0_shape5"/>
    <path d="M 29,119 28,119 28,80 28,73 29,73 29,81 z" fill="#7591cb" fill-opacity="1.0" id="x7591cb_r117_g145_b203_a1.0_shape6"/>
    <path d="M 238,112 237,112 237,80 237,79 238,79 238,80 z" fill="#7591cb" fill-opacity="1.0" id="x7591cb_r117_g145_b203_a1.0_shape7"/>
    <path d="M 238,279 237,279 237,250 237,246 238,246 238,248 z" fill="#7591cb" fill-opacity="1.0" id="x7591cb_r117_g145_b203_a1.0_shape8"/>
    <path d="M 430,238 430,237 451,237 462,237 462,238 456,238 z" fill="#7591cb" fill-opacity="1.0" id="x7591cb_r117_g145_b203_a1.0_shape9"/>
    <path d="M 237,347 238,347 238,379 237,379 z" fill="#7591cb" fill-opacity="1.0" id="x7591cb_r117_g145_b203_a1.0_shape10"/>
    <path d="M 470,379 470,380 443,380 439,380 439,379 443,379 z" fill="#7591cb" fill-opacity="1.0" id="x7591cb_r117_g145_b203_a1.0_shape11"/>
    <path d="M 355,110 354,110 354,81 355,81 z" fill="#7591cb" fill-opacity="1.0" id="x7591cb_r117_g145_b203_a1.0_shape12"/>
    <path d="M 162,237 162,238 138,238 138,237 z" fill="#7591cb" fill-opacity="1.0" id="x7591cb_r117_g145_b203_a1.0_shape13"/>
    <path d="M 230,238 230,237 245,237 253,237 253,238 250,238 z" fill="#7591cb" fill-opacity="1.0" id="x7591cb_r117_g145_b203_a1.0_shape14"/>
    <path d="M 261,379 261,380 238,380 238,379 z" fill="#7591cb" fill-opacity="1.0" id="x7591cb_r117_g145_b203_a1.0_shape15"/>
    <path d="M 131,380 131,379 153,379 153,380 z" fill="#7591cb" fill-opacity="1.0" id="x7591cb_r117_g145_b203_a1.0_shape16"/>
    <path d="M 348,237 348,238 338,238 338,237 z" fill="#7591cb" fill-opacity="1.0" id="x7591cb_r117_g145_b203_a1.0_shape17"/>
    <path d="M 263,113 262,113 262,112 263,112 z" fill="#7591cb" fill-opacity="1.0" id="x7591cb_r117_g145_b203_a1.0_shape18"/>
    <path d="M 229,121 229,120 230,120 230,121 z" fill="#7591cb" fill-opacity="1.0" id="x7591cb_r117_g145_b203_a1.0_shape19"/>
    <path d="M 138,196 137,196 137,195 138,195 z" fill="#7591cb" fill-opacity="1.0" id="x7591cb_r117_g145_b203_a1.0_shape20"/>
    <path d="M 349,240 348,240 348,239 349,239 z" fill="#7591cb" fill-opacity="1.0" id="x7591cb_r117_g145_b203_a1.0_shape21"/>
    <path d="M 347,241 347,240 348,240 348,241 z" fill="#7591cb" fill-opacity="1.0" id="x7591cb_r117_g145_b203_a1.0_shape22"/>
    <path d="M 344,245 343,245 343,244 344,244 z" fill="#7591cb" fill-opacity="1.0" id="x7591cb_r117_g145_b203_a1.0_shape23"/>
    <path d="M 262,245 263,245 263,246 262,246 z" fill="#7591cb" fill-opacity="1.0" id="x7591cb_r117_g145_b203_a1.0_shape24"/>
    <path d="M 343,245 343,246 342,246 342,245 z" fill="#7591cb" fill-opacity="1.0" id="x7591cb_r117_g145_b203_a1.0_shape25"/>
    <path d="M 472,245 472,246 471,246 471,245 z" fill="#7591cb" fill-opacity="1.0" id="x7591cb_r117_g145_b203_a1.0_shape26"/>
    <path d="M 63,246 63,247 62,247 62,246 z" fill="#7591cb" fill-opacity="1.0" id="x7591cb_r117_g145_b203_a1.0_shape27"/>
    <path d="M 64,247 64,248 63,248 63,247 z" fill="#7591cb" fill-opacity="1.0" id="x7591cb_r117_g145_b203_a1.0_shape28"/>
    <path d="M 432,247 433,247 433,248 432,248 z" fill="#7591cb" fill-opacity="1.0" id="x7591cb_r117_g145_b203_a1.0_shape29"/>
    <path d="M 65,248 65,249 64,249 64,248 z" fill="#7591cb" fill-opacity="1.0" id="x7591cb_r117_g145_b203_a1.0_shape30"/>
    <path d="M 432,249 431,249 431,248 432,248 z" fill="#7591cb" fill-opacity="1.0" id="x7591cb_r117_g145_b203_a1.0_shape31"/>
    <path d="M 66,249 66,250 65,250 65,249 z" fill="#7591cb" fill-opacity="1.0" id="x7591cb_r117_g145_b203_a1.0_shape32"/>
    <path d="M 338,249 339,249 339,250 338,250 z" fill="#7591cb" fill-opacity="1.0" id="x7591cb_r117_g145_b203_a1.0_shape33"/>
    <path d="M 430,250 430,249 431,249 431,250 z" fill="#7591cb" fill-opacity="1.0" id="x7591cb_r117_g145_b203_a1.0_shape34"/>
    <path d="M 68,252 67,252 67,251 68,251 z" fill="#7591cb" fill-opacity="1.0" id="x7591cb_r117_g145_b203_a1.0_shape35"/>
    <path d="M 69,252 69,253 68,253 68,252 z" fill="#7591cb" fill-opacity="1.0" id="x7591cb_r117_g145_b203_a1.0_shape36"/>
    <path d="M 69,253 70,253 70,254 69,254 z" fill="#7591cb" fill-opacity="1.0" id="x7591cb_r117_g145_b203_a1.0_shape37"/>
    <path d="M 426,253 427,253 427,254 426,254 z" fill="#7591cb" fill-opacity="1.0" id="x7591cb_r117_g145_b203_a1.0_shape38"/>
    <path d="M 71,255 70,255 70,254 71,254 z" fill="#7591cb" fill-opacity="1.0" id="x7591cb_r117_g145_b203_a1.0_shape39"/>
    <path d="M 334,254 334,255 333,255 333,254 z" fill="#7591cb" fill-opacity="1.0" id="x7591cb_r117_g145_b203_a1.0_shape40"/>
    <path d="M 426,255 425,255 425,254 426,254 z" fill="#7591cb" fill-opacity="1.0" id="x7591cb_r117_g145_b203_a1.0_shape41"/>
    <path d="M 72,257 72,256 73,256 73,257 z" fill="#7591cb" fill-opacity="1.0" id="x7591cb_r117_g145_b203_a1.0_shape42"/>
    <path d="M 74,258 73,258 73,257 74,257 z" fill="#7591cb" fill-opacity="1.0" id="x7591cb_r117_g145_b203_a1.0_shape43"/>
    <path d="M 74,259 74,258 75,258 75,259 z" fill="#7591cb" fill-opacity="1.0" id="x7591cb_r117_g145_b203_a1.0_shape44"/>
    <path d="M 421,259 421,258 422,258 422,259 z" fill="#7591cb" fill-opacity="1.0" id="x7591cb_r117_g145_b203_a1.0_shape45"/>
    <path d="M 76,259 76,260 75,260 75,259 z" fill="#7591cb" fill-opacity="1.0" id="x7591cb_r117_g145_b203_a1.0_shape46"/>
    <path d="M 420,260 420,259 421,259 421,260 z" fill="#7591cb" fill-opacity="1.0" id="x7591cb_r117_g145_b203_a1.0_shape47"/>
    <path d="M 77,262 77,261 78,261 78,262 z" fill="#7591cb" fill-opacity="1.0" id="x7591cb_r117_g145_b203_a1.0_shape48"/>
    <path d="M 79,263 78,263 78,262 79,262 z" fill="#7591cb" fill-opacity="1.0" id="x7591cb_r117_g145_b203_a1.0_shape49"/>
    <path d="M 80,263 80,264 79,264 79,263 z" fill="#7591cb" fill-opacity="1.0" id="x7591cb_r117_g145_b203_a1.0_shape50"/>
    <path d="M 417,263 417,264 416,264 416,263 z" fill="#7591cb" fill-opacity="1.0" id="x7591cb_r117_g145_b203_a1.0_shape51"/>
    <path d="M 81,264 81,265 80,265 80,264 z" fill="#7591cb" fill-opacity="1.0" id="x7591cb_r117_g145_b203_a1.0_shape52"/>
    <path d="M 415,264 416,264 416,265 415,265 z" fill="#7591cb" fill-opacity="1.0" id="x7591cb_r117_g145_b203_a1.0_shape53"/>
    <path d="M 83,267 82,267 82,266 83,266 z" fill="#7591cb" fill-opacity="1.0" id="x7591cb_r117_g145_b203_a1.0_shape54"/>
    <path d="M 83,268 83,267 84,267 84,268 z" fill="#7591cb" fill-opacity="1.0" id="x7591cb_r117_g145_b203_a1.0_shape55"/>
    <path d="M 84,268 85,268 85,269 84,269 z" fill="#7591cb" fill-opacity="1.0" id="x7591cb_r117_g145_b203_a1.0_shape56"/>
    <path d="M 411,268 412,268 412,269 411,269 z" fill="#7591cb" fill-opacity="1.0" id="x7591cb_r117_g145_b203_a1.0_shape57"/>
    <path d="M 86,269 86,270 85,270 85,269 z" fill="#7591cb" fill-opacity="1.0" id="x7591cb_r117_g145_b203_a1.0_shape58"/>
    <path d="M 410,270 410,269 411,269 411,270 z" fill="#7591cb" fill-opacity="1.0" id="x7591cb_r117_g145_b203_a1.0_shape59"/>
    <path d="M 88,273 88,272 89,272 89,273 z" fill="#7591cb" fill-opacity="1.0" id="x7591cb_r117_g145_b203_a1.0_shape60"/>
    <path d="M 89,274 89,273 90,273 90,274 z" fill="#7591cb" fill-opacity="1.0" id="x7591cb_r117_g145_b203_a1.0_shape61"/>
    <path d="M 406,274 406,273 407,273 407,274 z" fill="#7591cb" fill-opacity="1.0" id="x7591cb_r117_g145_b203_a1.0_shape62"/>
    <path d="M 91,274 91,275 90,275 90,274 z" fill="#7591cb" fill-opacity="1.0" id="x7591cb_r117_g145_b203_a1.0_shape63"/>
    <path d="M 93,277 94,277 94,278 93,278 z" fill="#7591cb" fill-opacity="1.0" id="x7591cb_r117_g145_b203_a1.0_shape64"/>
    <path d="M 94,279 94,278 95,278 95,279 z" fill="#7591cb" fill-opacity="1.0" id="x7591cb_r117_g145_b203_a1.0_shape65"/>
    <path d="M 229,288 229,287 230,287 230,288 z" fill="#7591cb" fill-opacity="1.0" id="x7591cb_r117_g145_b203_a1.0_shape66"/>
    <path d="M 369,310 370,310 370,311 369,311 z" fill="#7591cb" fill-opacity="1.0" id="x7591cb_r117_g145_b203_a1.0_shape67"/>
    <path d="M 358,311 358,312 357,312 357,311 z" fill="#7591cb" fill-opacity="1.0" id="x7591cb_r117_g145_b203_a1.0_shape68"/>
    <path d="M 361,314 361,315 360,315 360,314 z" fill="#7591cb" fill-opacity="1.0" id="x7591cb_r117_g145_b203_a1.0_shape69"/>
    <path d="M 365,319 366,319 366,320 365,320 z" fill="#7591cb" fill-opacity="1.0" id="x7591cb_r117_g145_b203_a1.0_shape70"/>
    <path d="M 297,346 297,347 296,347 296,346 z" fill="#7591cb" fill-opacity="1.0" id="x7591cb_r117_g145_b203_a1.0_shape71"/>
    <path d="M 299,349 300,349 300,350 299,350 z" fill="#7591cb" fill-opacity="1.0" id="x7591cb_r117_g145_b203_a1.0_shape72"/>
    <path d="M 301,350 301,351 300,351 300,350 z" fill="#7591cb" fill-opacity="1.0" id="x7591cb_r117_g145_b203_a1.0_shape73"/>
    <path d="M 301,351 302,351 302,352 301,352 z" fill="#7591cb" fill-opacity="1.0" id="x7591cb_r117_g145_b203_a1.0_shape74"/>
    <path d="M 302,353 302,352 303,352 303,353 z" fill="#7591cb" fill-opacity="1.0" id="x7591cb_r117_g145_b203_a1.0_shape75"/>
    <path d="M 304,354 305,354 305,355 304,355 z" fill="#7591cb" fill-opacity="1.0" id="x7591cb_r117_g145_b203_a1.0_shape76"/>
    <path d="M 306,356 305,356 305,355 306,355 z" fill="#7591cb" fill-opacity="1.0" id="x7591cb_r117_g145_b203_a1.0_shape77"/>
    <path d="M 306,356 307,356 307,357 306,357 z" fill="#7591cb" fill-opacity="1.0" id="x7591cb_r117_g145_b203_a1.0_shape78"/>
    <path d="M 308,357 308,358 307,358 307,357 z" fill="#7591cb" fill-opacity="1.0" id="x7591cb_r117_g145_b203_a1.0_shape79"/>
    <path d="M 310,360 309,360 309,359 310,359 z" fill="#7591cb" fill-opacity="1.0" id="x7591cb_r117_g145_b203_a1.0_shape80"/>
    <path d="M 310,360 311,360 311,361 310,361 z" fill="#7591cb" fill-opacity="1.0" id="x7591cb_r117_g145_b203_a1.0_shape81"/>
    <path d="M 311,362 311,361 312,361 312,362 z" fill="#7591cb" fill-opacity="1.0" id="x7591cb_r117_g145_b203_a1.0_shape82"/>
    <path d="M 315,364 315,365 314,365 314,364 z" fill="#7591cb" fill-opacity="1.0" id="x7591cb_r117_g145_b203_a1.0_shape83"/>
    <path d="M 315,365 316,365 316,366 315,366 z" fill="#7591cb" fill-opacity="1.0" id="x7591cb_r117_g145_b203_a1.0_shape84"/>
    <path d="M 316,367 316,366 317,366 317,367 z" fill="#7591cb" fill-opacity="1.0" id="x7591cb_r117_g145_b203_a1.0_shape85"/>
    <path d="M 318,367 318,368 317,368 317,367 z" fill="#7591cb" fill-opacity="1.0" id="x7591cb_r117_g145_b203_a1.0_shape86"/>
    <path d="M 320,369 320,370 319,370 319,369 z" fill="#7591cb" fill-opacity="1.0" id="x7591cb_r117_g145_b203_a1.0_shape87"/>
    <path d="M 320,370 321,370 321,371 320,371 z" fill="#7591cb" fill-opacity="1.0" id="x7591cb_r117_g145_b203_a1.0_shape88"/>
    <path d="M 322,372 321,372 321,371 322,371 z" fill="#7591cb" fill-opacity="1.0" id="x7591cb_r117_g145_b203_a1.0_shape89"/>
    <path d="M 322,373 322,372 323,372 323,373 z" fill="#7591cb" fill-opacity="1.0" id="x7591cb_r117_g145_b203_a1.0_shape90"/>
    <path d="M 325,374 325,375 324,375 324,374 z" fill="#7591cb" fill-opacity="1.0" id="x7591cb_r117_g145_b203_a1.0_shape91"/>
    <path d="M 325,375 326,375 326,376 325,376 z" fill="#7591cb" fill-opacity="1.0" id="x7591cb_r117_g145_b203_a1.0_shape92"/>
    <path d="M 327,376 327,377 326,377 326,376 z" fill="#7591cb" fill-opacity="1.0" id="x7591cb_r117_g145_b203_a1.0_shape93"/>
    <path d="M 327,377 328,377 328,378 327,378 z" fill="#7591cb" fill-opacity="1.0" id="x7591cb_r117_g145_b203_a1.0_shape94"/>
    <path d="M 329,378 329,379 328,379 328,378 z" fill="#7591cb" fill-opacity="1.0" id="x7591cb_r117_g145_b203_a1.0_shape95"/>
  </g>
  <g id="x0033a0_r0_g51_b160_a0.6078431372549019">
    <path d="M 346,188 346,187 405,187 480,187 480,188 440,188 z" fill="#0033a0" fill-opacity="0.6078431372549019" id="x0033a0_r0_g51_b160_a0.6078431372549019_shape1"/>
    <path d="M 246,187 246,188 195,188 146,188 146,187 171,187 z" fill="#0033a0" fill-opacity="0.6078431372549019" id="x0033a0_r0_g51_b160_a0.6078431372549019_shape2"/>
    <path d="M 145,296 146,296 146,341 146,371 145,371 145,353 z" fill="#0033a0" fill-opacity="0.6078431372549019" id="x0033a0_r0_g51_b160_a0.6078431372549019_shape3"/>
    <path d="M 170,62 171,62 171,129 170,129 z" fill="#0033a0" fill-opacity="0.6078431372549019" id="x0033a0_r0_g51_b160_a0.6078431372549019_shape4"/>
    <path d="M 120,371 121,371 121,431 121,438 120,438 120,434 z" fill="#0033a0" fill-opacity="0.6078431372549019" id="x0033a0_r0_g51_b160_a0.6078431372549019_shape5"/>
    <path d="M 145,129 146,129 146,142 146,187 145,187 145,149 z" fill="#0033a0" fill-opacity="0.6078431372549019" id="x0033a0_r0_g51_b160_a0.6078431372549019_shape6"/>
    <path d="M 45,255 45,254 46,254 46,255 z" fill="#0033a0" fill-opacity="0.6078431372549019" id="x0033a0_r0_g51_b160_a0.6078431372549019_shape7"/>
    <path d="M 46,255 47,255 47,256 46,256 z" fill="#0033a0" fill-opacity="0.6078431372549019" id="x0033a0_r0_g51_b160_a0.6078431372549019_shape8"/>
    <path d="M 47,256 48,256 48,257 47,257 z" fill="#0033a0" fill-opacity="0.6078431372549019" id="x0033a0_r0_g51_b160_a0.6078431372549019_shape9"/>
    <path d="M 49,258 48,258 48,257 49,257 z" fill="#0033a0" fill-opacity="0.6078431372549019" id="x0033a0_r0_g51_b160_a0.6078431372549019_shape10"/>
    <path d="M 49,259 49,258 50,258 50,259 z" fill="#0033a0" fill-opacity="0.6078431372549019" id="x0033a0_r0_g51_b160_a0.6078431372549019_shape11"/>
    <path d="M 51,260 50,260 50,259 51,259 z" fill="#0033a0" fill-opacity="0.6078431372549019" id="x0033a0_r0_g51_b160_a0.6078431372549019_shape12"/>
    <path d="M 51,261 51,260 52,260 52,261 z" fill="#0033a0" fill-opacity="0.6078431372549019" id="x0033a0_r0_g51_b160_a0.6078431372549019_shape13"/>
    <path d="M 52,262 52,261 53,261 53,262 z" fill="#0033a0" fill-opacity="0.6078431372549019" id="x0033a0_r0_g51_b160_a0.6078431372549019_shape14"/>
    <path d="M 54,263 53,263 53,262 54,262 z" fill="#0033a0" fill-opacity="0.6078431372549019" id="x0033a0_r0_g51_b160_a0.6078431372549019_shape15"/>
    <path d="M 55,263 55,264 54,264 54,263 z" fill="#0033a0" fill-opacity="0.6078431372549019" id="x0033a0_r0_g51_b160_a0.6078431372549019_shape16"/>
    <path d="M 56,265 55,265 55,264 56,264 z" fill="#0033a0" fill-opacity="0.6078431372549019" id="x0033a0_r0_g51_b160_a0.6078431372549019_shape17"/>
    <path d="M 56,266 56,265 57,265 57,266 z" fill="#0033a0" fill-opacity="0.6078431372549019" id="x0033a0_r0_g51_b160_a0.6078431372549019_shape18"/>
    <path d="M 58,266 58,267 57,267 57,266 z" fill="#0033a0" fill-opacity="0.6078431372549019" id="x0033a0_r0_g51_b160_a0.6078431372549019_shape19"/>
    <path d="M 59,267 59,268 58,268 58,267 z" fill="#0033a0" fill-opacity="0.6078431372549019" id="x0033a0_r0_g51_b160_a0.6078431372549019_shape20"/>
    <path d="M 60,268 60,269 59,269 59,268 z" fill="#0033a0" fill-opacity="0.6078431372549019" id="x0033a0_r0_g51_b160_a0.6078431372549019_shape21"/>
    <path d="M 60,270 60,269 61,269 61,270 z" fill="#0033a0" fill-opacity="0.6078431372549019" id="x0033a0_r0_g51_b160_a0.6078431372549019_shape22"/>
    <path d="M 61,271 61,270 62,270 62,271 z" fill="#0033a0" fill-opacity="0.6078431372549019" id="x0033a0_r0_g51_b160_a0.6078431372549019_shape23"/>
    <path d="M 62,271 63,271 63,272 62,272 z" fill="#0033a0" fill-opacity="0.6078431372549019" id="x0033a0_r0_g51_b160_a0.6078431372549019_shape24"/>
    <path d="M 63,272 64,272 64,273 63,273 z" fill="#0033a0" fill-opacity="0.6078431372549019" id="x0033a0_r0_g51_b160_a0.6078431372549019_shape25"/>
    <path d="M 65,273 65,274 64,274 64,273 z" fill="#0033a0" fill-opacity="0.6078431372549019" id="x0033a0_r0_g51_b160_a0.6078431372549019_shape26"/>
    <path d="M 66,275 65,275 65,274 66,274 z" fill="#0033a0" fill-opacity="0.6078431372549019" id="x0033a0_r0_g51_b160_a0.6078431372549019_shape27"/>
    <path d="M 67,276 66,276 66,275 67,275 z" fill="#0033a0" fill-opacity="0.6078431372549019" id="x0033a0_r0_g51_b160_a0.6078431372549019_shape28"/>
    <path d="M 67,276 68,276 68,277 67,277 z" fill="#0033a0" fill-opacity="0.6078431372549019" id="x0033a0_r0_g51_b160_a0.6078431372549019_shape29"/>
    <path d="M 69,278 68,278 68,277 69,277 z" fill="#0033a0" fill-opacity="0.6078431372549019" id="x0033a0_r0_g51_b160_a0.6078431372549019_shape30"/>
    <path d="M 70,279 69,279 69,278 70,278 z" fill="#0033a0" fill-opacity="0.6078431372549019" id="x0033a0_r0_g51_b160_a0.6078431372549019_shape31"/>
    <path d="M 70,279 71,279 71,280 70,280 z" fill="#0033a0" fill-opacity="0.6078431372549019" id="x0033a0_r0_g51_b160_a0.6078431372549019_shape32"/>
    <path d="M 71,281 71,280 72,280 72,281 z" fill="#0033a0" fill-opacity="0.6078431372549019" id="x0033a0_r0_g51_b160_a0.6078431372549019_shape33"/>
    <path d="M 73,282 72,282 72,281 73,281 z" fill="#0033a0" fill-opacity="0.6078431372549019" id="x0033a0_r0_g51_b160_a0.6078431372549019_shape34"/>
    <path d="M 74,283 73,283 73,282 74,282 z" fill="#0033a0" fill-opacity="0.6078431372549019" id="x0033a0_r0_g51_b160_a0.6078431372549019_shape35"/>
    <path d="M 74,284 74,283 75,283 75,284 z" fill="#0033a0" fill-opacity="0.6078431372549019" id="x0033a0_r0_g51_b160_a0.6078431372549019_shape36"/>
    <path d="M 76,284 76,285 75,285 75,284 z" fill="#0033a0" fill-opacity="0.6078431372549019" id="x0033a0_r0_g51_b160_a0.6078431372549019_shape37"/>
    <path d="M 77,285 77,286 76,286 76,285 z" fill="#0033a0" fill-opacity="0.6078431372549019" id="x0033a0_r0_g51_b160_a0.6078431372549019_shape38"/>
    <path d="M 77,286 78,286 78,287 77,287 z" fill="#0033a0" fill-opacity="0.6078431372549019" id="x0033a0_r0_g51_b160_a0.6078431372549019_shape39"/>
    <path d="M 79,288 78,288 78,287 79,287 z" fill="#0033a0" fill-opacity="0.6078431372549019" id="x0033a0_r0_g51_b160_a0.6078431372549019_shape40"/>
    <path d="M 79,289 79,288 80,288 80,289 z" fill="#0033a0" fill-opacity="0.6078431372549019" id="x0033a0_r0_g51_b160_a0.6078431372549019_shape41"/>
    <path d="M 81,289 81,290 80,290 80,289 z" fill="#0033a0" fill-opacity="0.6078431372549019" id="x0033a0_r0_g51_b160_a0.6078431372549019_shape42"/>
    <path d="M 82,290 82,291 81,291 81,290 z" fill="#0033a0" fill-opacity="0.6078431372549019" id="x0033a0_r0_g51_b160_a0.6078431372549019_shape43"/>
    <path d="M 83,292 82,292 82,291 83,291 z" fill="#0033a0" fill-opacity="0.6078431372549019" id="x0033a0_r0_g51_b160_a0.6078431372549019_shape44"/>
    <path d="M 83,292 84,292 84,293 83,293 z" fill="#0033a0" fill-opacity="0.6078431372549019" id="x0033a0_r0_g51_b160_a0.6078431372549019_shape45"/>
    <path d="M 84,294 84,293 85,293 85,294 z" fill="#0033a0" fill-opacity="0.6078431372549019" id="x0033a0_r0_g51_b160_a0.6078431372549019_shape46"/>
    <path d="M 86,294 86,295 85,295 85,294 z" fill="#0033a0" fill-opacity="0.6078431372549019" id="x0033a0_r0_g51_b160_a0.6078431372549019_shape47"/>
    <path d="M 87,296 86,296 86,295 87,295 z" fill="#0033a0" fill-opacity="0.6078431372549019" id="x0033a0_r0_g51_b160_a0.6078431372549019_shape48"/>
    <path d="M 383,311 383,312 382,312 382,311 z" fill="#0033a0" fill-opacity="0.6078431372549019" id="x0033a0_r0_g51_b160_a0.6078431372549019_shape49"/>
    <path d="M 384,313 383,313 383,312 384,312 z" fill="#0033a0" fill-opacity="0.6078431372549019" id="x0033a0_r0_g51_b160_a0.6078431372549019_shape50"/>
    <path d="M 385,313 385,314 384,314 384,313 z" fill="#0033a0" fill-opacity="0.6078431372549019" id="x0033a0_r0_g51_b160_a0.6078431372549019_shape51"/>
    <path d="M 386,315 385,315 385,314 386,314 z" fill="#0033a0" fill-opacity="0.6078431372549019" id="x0033a0_r0_g51_b160_a0.6078431372549019_shape52"/>
    <path d="M 387,315 387,316 386,316 386,315 z" fill="#0033a0" fill-opacity="0.6078431372549019" id="x0033a0_r0_g51_b160_a0.6078431372549019_shape53"/>
    <path d="M 388,317 387,317 387,316 388,316 z" fill="#0033a0" fill-opacity="0.6078431372549019" id="x0033a0_r0_g51_b160_a0.6078431372549019_shape54"/>
    <path d="M 389,318 388,318 388,317 389,317 z" fill="#0033a0" fill-opacity="0.6078431372549019" id="x0033a0_r0_g51_b160_a0.6078431372549019_shape55"/>
    <path d="M 389,318 390,318 390,319 389,319 z" fill="#0033a0" fill-opacity="0.6078431372549019" id="x0033a0_r0_g51_b160_a0.6078431372549019_shape56"/>
    <path d="M 391,319 391,320 390,320 390,319 z" fill="#0033a0" fill-opacity="0.6078431372549019" id="x0033a0_r0_g51_b160_a0.6078431372549019_shape57"/>
    <path d="M 392,320 392,321 391,321 391,320 z" fill="#0033a0" fill-opacity="0.6078431372549019" id="x0033a0_r0_g51_b160_a0.6078431372549019_shape58"/>
    <path d="M 393,322 392,322 392,321 393,321 z" fill="#0033a0" fill-opacity="0.6078431372549019" id="x0033a0_r0_g51_b160_a0.6078431372549019_shape59"/>
    <path d="M 393,323 393,322 394,322 394,323 z" fill="#0033a0" fill-opacity="0.6078431372549019" id="x0033a0_r0_g51_b160_a0.6078431372549019_shape60"/>
    <path d="M 394,324 394,323 395,323 395,324 z" fill="#0033a0" fill-opacity="0.6078431372549019" id="x0033a0_r0_g51_b160_a0.6078431372549019_shape61"/>
    <path d="M 396,326 396,325 397,325 397,326 z" fill="#0033a0" fill-opacity="0.6078431372549019" id="x0033a0_r0_g51_b160_a0.6078431372549019_shape62"/>
    <path d="M 398,326 398,327 397,327 397,326 z" fill="#0033a0" fill-opacity="0.6078431372549019" id="x0033a0_r0_g51_b160_a0.6078431372549019_shape63"/>
    <path d="M 398,327 399,327 399,328 398,328 z" fill="#0033a0" fill-opacity="0.6078431372549019" id="x0033a0_r0_g51_b160_a0.6078431372549019_shape64"/>
    <path d="M 399,329 399,328 400,328 400,329 z" fill="#0033a0" fill-opacity="0.6078431372549019" id="x0033a0_r0_g51_b160_a0.6078431372549019_shape65"/>
    <path d="M 401,331 401,330 402,330 402,331 z" fill="#0033a0" fill-opacity="0.6078431372549019" id="x0033a0_r0_g51_b160_a0.6078431372549019_shape66"/>
    <path d="M 403,331 403,332 402,332 402,331 z" fill="#0033a0" fill-opacity="0.6078431372549019" id="x0033a0_r0_g51_b160_a0.6078431372549019_shape67"/>
    <path d="M 404,333 403,333 403,332 404,332 z" fill="#0033a0" fill-opacity="0.6078431372549019" id="x0033a0_r0_g51_b160_a0.6078431372549019_shape68"/>
    <path d="M 404,333 405,333 405,334 404,334 z" fill="#0033a0" fill-opacity="0.6078431372549019" id="x0033a0_r0_g51_b160_a0.6078431372549019_shape69"/>
    <path d="M 408,336 408,337 407,337 407,336 z" fill="#0033a0" fill-opacity="0.6078431372549019" id="x0033a0_r0_g51_b160_a0.6078431372549019_shape70"/>
    <path d="M 408,337 409,337 409,338 408,338 z" fill="#0033a0" fill-opacity="0.6078431372549019" id="x0033a0_r0_g51_b160_a0.6078431372549019_shape71"/>
    <path d="M 410,339 409,339 409,338 410,338 z" fill="#0033a0" fill-opacity="0.6078431372549019" id="x0033a0_r0_g51_b160_a0.6078431372549019_shape72"/>
    <path d="M 412,342 412,341 413,341 413,342 z" fill="#0033a0" fill-opacity="0.6078431372549019" id="x0033a0_r0_g51_b160_a0.6078431372549019_shape73"/>
    <path d="M 413,343 413,342 414,342 414,343 z" fill="#0033a0" fill-opacity="0.6078431372549019" id="x0033a0_r0_g51_b160_a0.6078431372549019_shape74"/>
    <path d="M 415,343 415,344 414,344 414,343 z" fill="#0033a0" fill-opacity="0.6078431372549019" id="x0033a0_r0_g51_b160_a0.6078431372549019_shape75"/>
    <path d="M 417,347 417,346 418,346 418,347 z" fill="#0033a0" fill-opacity="0.6078431372549019" id="x0033a0_r0_g51_b160_a0.6078431372549019_shape76"/>
    <path d="M 418,348 418,347 419,347 419,348 z" fill="#0033a0" fill-opacity="0.6078431372549019" id="x0033a0_r0_g51_b160_a0.6078431372549019_shape77"/>
    <path d="M 420,348 420,349 419,349 419,348 z" fill="#0033a0" fill-opacity="0.6078431372549019" id="x0033a0_r0_g51_b160_a0.6078431372549019_shape78"/>
    <path d="M 422,351 423,351 423,352 422,352 z" fill="#0033a0" fill-opacity="0.6078431372549019" id="x0033a0_r0_g51_b160_a0.6078431372549019_shape79"/>
    <path d="M 423,353 423,352 424,352 424,353 z" fill="#0033a0" fill-opacity="0.6078431372549019" id="x0033a0_r0_g51_b160_a0.6078431372549019_shape80"/>
    <path d="M 425,353 425,354 424,354 424,353 z" fill="#0033a0" fill-opacity="0.6078431372549019" id="x0033a0_r0_g51_b160_a0.6078431372549019_shape81"/>
    <path d="M 427,356 428,356 428,357 427,357 z" fill="#0033a0" fill-opacity="0.6078431372549019" id="x0033a0_r0_g51_b160_a0.6078431372549019_shape82"/>
    <path d="M 429,358 428,358 428,357 429,357 z" fill="#0033a0" fill-opacity="0.6078431372549019" id="x0033a0_r0_g51_b160_a0.6078431372549019_shape83"/>
    <path d="M 429,358 430,358 430,359 429,359 z" fill="#0033a0" fill-opacity="0.6078431372549019" id="x0033a0_r0_g51_b160_a0.6078431372549019_shape84"/>
    <path d="M 434,363 433,363 433,362 434,362 z" fill="#0033a0" fill-opacity="0.6078431372549019" id="x0033a0_r0_g51_b160_a0.6078431372549019_shape85"/>
    <path d="M 434,363 435,363 435,364 434,364 z" fill="#0033a0" fill-opacity="0.6078431372549019" id="x0033a0_r0_g51_b160_a0.6078431372549019_shape86"/>
    <path d="M 438,368 438,367 439,367 439,368 z" fill="#0033a0" fill-opacity="0.6078431372549019" id="x0033a0_r0_g51_b160_a0.6078431372549019_shape87"/>
    <path d="M 439,369 439,368 440,368 440,369 z" fill="#0033a0" fill-opacity="0.6078431372549019" id="x0033a0_r0_g51_b160_a0.6078431372549019_shape88"/>
  </g>
  <g id="x0033a0_r0_g51_b160_a0.08627450980392157">
    <path d="M 272,438 271,438 271,371 272,371 z" fill="#0033a0" fill-opacity="0.08627450980392157" id="x0033a0_r0_g51_b160_a0.08627450980392157_shape1"/>
    <path d="M 144,296 144,297 103,297 86,297 86,296 89,296 z" fill="#0033a0" fill-opacity="0.08627450980392157" id="x0033a0_r0_g51_b160_a0.08627450980392157_shape2"/>
    <path d="M 245,130 246,130 246,187 245,187 z" fill="#0033a0" fill-opacity="0.08627450980392157" id="x0033a0_r0_g51_b160_a0.08627450980392157_shape3"/>
    <path d="M 20,130 20,129 44,129 44,130 z" fill="#0033a0" fill-opacity="0.08627450980392157" id="x0033a0_r0_g51_b160_a0.08627450980392157_shape4"/>
    <path d="M 171,129 171,130 147,130 147,129 z" fill="#0033a0" fill-opacity="0.08627450980392157" id="x0033a0_r0_g51_b160_a0.08627450980392157_shape5"/>
    <path d="M 220,130 220,129 243,129 244,129 244,130 243,130 z" fill="#0033a0" fill-opacity="0.08627450980392157" id="x0033a0_r0_g51_b160_a0.08627450980392157_shape6"/>
    <path d="M 372,129 372,130 348,130 348,129 z" fill="#0033a0" fill-opacity="0.08627450980392157" id="x0033a0_r0_g51_b160_a0.08627450980392157_shape7"/>
    <path d="M 221,63 220,63 220,62 221,62 z" fill="#0033a0" fill-opacity="0.08627450980392157" id="x0033a0_r0_g51_b160_a0.08627450980392157_shape8"/>
    <path d="M 438,255 438,256 437,256 437,255 z" fill="#0033a0" fill-opacity="0.08627450980392157" id="x0033a0_r0_g51_b160_a0.08627450980392157_shape9"/>
    <path d="M 437,257 436,257 436,256 437,256 z" fill="#0033a0" fill-opacity="0.08627450980392157" id="x0033a0_r0_g51_b160_a0.08627450980392157_shape10"/>
    <path d="M 435,257 436,257 436,258 435,258 z" fill="#0033a0" fill-opacity="0.08627450980392157" id="x0033a0_r0_g51_b160_a0.08627450980392157_shape11"/>
    <path d="M 434,258 435,258 435,259 434,259 z" fill="#0033a0" fill-opacity="0.08627450980392157" id="x0033a0_r0_g51_b160_a0.08627450980392157_shape12"/>
    <path d="M 433,259 434,259 434,260 433,260 z" fill="#0033a0" fill-opacity="0.08627450980392157" id="x0033a0_r0_g51_b160_a0.08627450980392157_shape13"/>
    <path d="M 433,260 433,261 432,261 432,260 z" fill="#0033a0" fill-opacity="0.08627450980392157" id="x0033a0_r0_g51_b160_a0.08627450980392157_shape14"/>
    <path d="M 431,261 432,261 432,262 431,262 z" fill="#0033a0" fill-opacity="0.08627450980392157" id="x0033a0_r0_g51_b160_a0.08627450980392157_shape15"/>
    <path d="M 430,263 430,262 431,262 431,263 z" fill="#0033a0" fill-opacity="0.08627450980392157" id="x0033a0_r0_g51_b160_a0.08627450980392157_shape16"/>
    <path d="M 429,263 430,263 430,264 429,264 z" fill="#0033a0" fill-opacity="0.08627450980392157" id="x0033a0_r0_g51_b160_a0.08627450980392157_shape17"/>
    <path d="M 428,264 429,264 429,265 428,265 z" fill="#0033a0" fill-opacity="0.08627450980392157" id="x0033a0_r0_g51_b160_a0.08627450980392157_shape18"/>
    <path d="M 427,265 428,265 428,266 427,266 z" fill="#0033a0" fill-opacity="0.08627450980392157" id="x0033a0_r0_g51_b160_a0.08627450980392157_shape19"/>
    <path d="M 427,266 427,267 426,267 426,266 z" fill="#0033a0" fill-opacity="0.08627450980392157" id="x0033a0_r0_g51_b160_a0.08627450980392157_shape20"/>
    <path d="M 425,267 426,267 426,268 425,268 z" fill="#0033a0" fill-opacity="0.08627450980392157" id="x0033a0_r0_g51_b160_a0.08627450980392157_shape21"/>
    <path d="M 424,269 424,268 425,268 425,269 z" fill="#0033a0" fill-opacity="0.08627450980392157" id="x0033a0_r0_g51_b160_a0.08627450980392157_shape22"/>
    <path d="M 423,270 423,269 424,269 424,270 z" fill="#0033a0" fill-opacity="0.08627450980392157" id="x0033a0_r0_g51_b160_a0.08627450980392157_shape23"/>
    <path d="M 422,271 422,270 423,270 423,271 z" fill="#0033a0" fill-opacity="0.08627450980392157" id="x0033a0_r0_g51_b160_a0.08627450980392157_shape24"/>
    <path d="M 421,272 421,271 422,271 422,272 z" fill="#0033a0" fill-opacity="0.08627450980392157" id="x0033a0_r0_g51_b160_a0.08627450980392157_shape25"/>
    <path d="M 420,272 421,272 421,273 420,273 z" fill="#0033a0" fill-opacity="0.08627450980392157" id="x0033a0_r0_g51_b160_a0.08627450980392157_shape26"/>
    <path d="M 419,273 420,273 420,274 419,274 z" fill="#0033a0" fill-opacity="0.08627450980392157" id="x0033a0_r0_g51_b160_a0.08627450980392157_shape27"/>
    <path d="M 418,275 418,274 419,274 419,275 z" fill="#0033a0" fill-opacity="0.08627450980392157" id="x0033a0_r0_g51_b160_a0.08627450980392157_shape28"/>
    <path d="M 417,276 417,275 418,275 418,276 z" fill="#0033a0" fill-opacity="0.08627450980392157" id="x0033a0_r0_g51_b160_a0.08627450980392157_shape29"/>
    <path d="M 417,277 416,277 416,276 417,276 z" fill="#0033a0" fill-opacity="0.08627450980392157" id="x0033a0_r0_g51_b160_a0.08627450980392157_shape30"/>
    <path d="M 415,277 416,277 416,278 415,278 z" fill="#0033a0" fill-opacity="0.08627450980392157" id="x0033a0_r0_g51_b160_a0.08627450980392157_shape31"/>
    <path d="M 414,279 414,278 415,278 415,279 z" fill="#0033a0" fill-opacity="0.08627450980392157" id="x0033a0_r0_g51_b160_a0.08627450980392157_shape32"/>
    <path d="M 414,279 414,280 413,280 413,279 z" fill="#0033a0" fill-opacity="0.08627450980392157" id="x0033a0_r0_g51_b160_a0.08627450980392157_shape33"/>
    <path d="M 413,281 412,281 412,280 413,280 z" fill="#0033a0" fill-opacity="0.08627450980392157" id="x0033a0_r0_g51_b160_a0.08627450980392157_shape34"/>
    <path d="M 412,282 411,282 411,281 412,281 z" fill="#0033a0" fill-opacity="0.08627450980392157" id="x0033a0_r0_g51_b160_a0.08627450980392157_shape35"/>
    <path d="M 410,282 411,282 411,283 410,283 z" fill="#0033a0" fill-opacity="0.08627450980392157" id="x0033a0_r0_g51_b160_a0.08627450980392157_shape36"/>
    <path d="M 409,284 409,283 410,283 410,284 z" fill="#0033a0" fill-opacity="0.08627450980392157" id="x0033a0_r0_g51_b160_a0.08627450980392157_shape37"/>
    <path d="M 408,284 409,284 409,285 408,285 z" fill="#0033a0" fill-opacity="0.08627450980392157" id="x0033a0_r0_g51_b160_a0.08627450980392157_shape38"/>
    <path d="M 407,285 408,285 408,286 407,286 z" fill="#0033a0" fill-opacity="0.08627450980392157" id="x0033a0_r0_g51_b160_a0.08627450980392157_shape39"/>
    <path d="M 407,286 407,287 406,287 406,286 z" fill="#0033a0" fill-opacity="0.08627450980392157" id="x0033a0_r0_g51_b160_a0.08627450980392157_shape40"/>
    <path d="M 405,288 405,287 406,287 406,288 z" fill="#0033a0" fill-opacity="0.08627450980392157" id="x0033a0_r0_g51_b160_a0.08627450980392157_shape41"/>
    <path d="M 404,289 404,288 405,288 405,289 z" fill="#0033a0" fill-opacity="0.08627450980392157" id="x0033a0_r0_g51_b160_a0.08627450980392157_shape42"/>
    <path d="M 403,289 404,289 404,290 403,290 z" fill="#0033a0" fill-opacity="0.08627450980392157" id="x0033a0_r0_g51_b160_a0.08627450980392157_shape43"/>
    <path d="M 402,291 402,290 403,290 403,291 z" fill="#0033a0" fill-opacity="0.08627450980392157" id="x0033a0_r0_g51_b160_a0.08627450980392157_shape44"/>
    <path d="M 401,292 401,291 402,291 402,292 z" fill="#0033a0" fill-opacity="0.08627450980392157" id="x0033a0_r0_g51_b160_a0.08627450980392157_shape45"/>
    <path d="M 400,293 400,292 401,292 401,293 z" fill="#0033a0" fill-opacity="0.08627450980392157" id="x0033a0_r0_g51_b160_a0.08627450980392157_shape46"/>
    <path d="M 399,293 400,293 400,294 399,294 z" fill="#0033a0" fill-opacity="0.08627450980392157" id="x0033a0_r0_g51_b160_a0.08627450980392157_shape47"/>
    <path d="M 398,294 399,294 399,295 398,295 z" fill="#0033a0" fill-opacity="0.08627450980392157" id="x0033a0_r0_g51_b160_a0.08627450980392157_shape48"/>
    <path d="M 397,296 397,295 398,295 398,296 z" fill="#0033a0" fill-opacity="0.08627450980392157" id="x0033a0_r0_g51_b160_a0.08627450980392157_shape49"/>
    <path d="M 397,296 397,297 396,297 396,296 z" fill="#0033a0" fill-opacity="0.08627450980392157" id="x0033a0_r0_g51_b160_a0.08627450980392157_shape50"/>
    <path d="M 395,298 395,297 396,297 396,298 z" fill="#0033a0" fill-opacity="0.08627450980392157" id="x0033a0_r0_g51_b160_a0.08627450980392157_shape51"/>
    <path d="M 394,299 394,298 395,298 395,299 z" fill="#0033a0" fill-opacity="0.08627450980392157" id="x0033a0_r0_g51_b160_a0.08627450980392157_shape52"/>
    <path d="M 393,300 393,299 394,299 394,300 z" fill="#0033a0" fill-opacity="0.08627450980392157" id="x0033a0_r0_g51_b160_a0.08627450980392157_shape53"/>
    <path d="M 392,301 392,300 393,300 393,301 z" fill="#0033a0" fill-opacity="0.08627450980392157" id="x0033a0_r0_g51_b160_a0.08627450980392157_shape54"/>
    <path d="M 391,302 391,301 392,301 392,302 z" fill="#0033a0" fill-opacity="0.08627450980392157" id="x0033a0_r0_g51_b160_a0.08627450980392157_shape55"/>
    <path d="M 391,303 390,303 390,302 391,302 z" fill="#0033a0" fill-opacity="0.08627450980392157" id="x0033a0_r0_g51_b160_a0.08627450980392157_shape56"/>
    <path d="M 390,304 389,304 389,303 390,303 z" fill="#0033a0" fill-opacity="0.08627450980392157" id="x0033a0_r0_g51_b160_a0.08627450980392157_shape57"/>
    <path d="M 389,305 388,305 388,304 389,304 z" fill="#0033a0" fill-opacity="0.08627450980392157" id="x0033a0_r0_g51_b160_a0.08627450980392157_shape58"/>
    <path d="M 387,306 387,305 388,305 388,306 z" fill="#0033a0" fill-opacity="0.08627450980392157" id="x0033a0_r0_g51_b160_a0.08627450980392157_shape59"/>
    <path d="M 387,307 386,307 386,306 387,306 z" fill="#0033a0" fill-opacity="0.08627450980392157" id="x0033a0_r0_g51_b160_a0.08627450980392157_shape60"/>
    <path d="M 386,308 385,308 385,307 386,307 z" fill="#0033a0" fill-opacity="0.08627450980392157" id="x0033a0_r0_g51_b160_a0.08627450980392157_shape61"/>
    <path d="M 384,309 384,308 385,308 385,309 z" fill="#0033a0" fill-opacity="0.08627450980392157" id="x0033a0_r0_g51_b160_a0.08627450980392157_shape62"/>
    <path d="M 384,309 384,310 383,310 383,309 z" fill="#0033a0" fill-opacity="0.08627450980392157" id="x0033a0_r0_g51_b160_a0.08627450980392157_shape63"/>
    <path d="M 383,310 383,311 382,311 382,310 z" fill="#0033a0" fill-opacity="0.08627450980392157" id="x0033a0_r0_g51_b160_a0.08627450980392157_shape64"/>
    <path d="M 396,325 396,324 397,324 397,325 z" fill="#0033a0" fill-opacity="0.08627450980392157" id="x0033a0_r0_g51_b160_a0.08627450980392157_shape65"/>
    <path d="M 402,330 401,330 401,329 402,329 z" fill="#0033a0" fill-opacity="0.08627450980392157" id="x0033a0_r0_g51_b160_a0.08627450980392157_shape66"/>
    <path d="M 406,334 407,334 407,335 406,335 z" fill="#0033a0" fill-opacity="0.08627450980392157" id="x0033a0_r0_g51_b160_a0.08627450980392157_shape67"/>
    <path d="M 412,339 412,340 411,340 411,339 z" fill="#0033a0" fill-opacity="0.08627450980392157" id="x0033a0_r0_g51_b160_a0.08627450980392157_shape68"/>
    <path d="M 417,345 416,345 416,344 417,344 z" fill="#0033a0" fill-opacity="0.08627450980392157" id="x0033a0_r0_g51_b160_a0.08627450980392157_shape69"/>
    <path d="M 418,345 418,346 417,346 417,345 z" fill="#0033a0" fill-opacity="0.08627450980392157" id="x0033a0_r0_g51_b160_a0.08627450980392157_shape70"/>
    <path d="M 422,349 422,350 421,350 421,349 z" fill="#0033a0" fill-opacity="0.08627450980392157" id="x0033a0_r0_g51_b160_a0.08627450980392157_shape71"/>
    <path d="M 422,351 422,350 423,350 423,351 z" fill="#0033a0" fill-opacity="0.08627450980392157" id="x0033a0_r0_g51_b160_a0.08627450980392157_shape72"/>
    <path d="M 426,355 426,354 427,354 427,355 z" fill="#0033a0" fill-opacity="0.08627450980392157" id="x0033a0_r0_g51_b160_a0.08627450980392157_shape73"/>
    <path d="M 293,356 292,356 292,355 293,355 z" fill="#0033a0" fill-opacity="0.08627450980392157" id="x0033a0_r0_g51_b160_a0.08627450980392157_shape74"/>
    <path d="M 428,355 428,356 427,356 427,355 z" fill="#0033a0" fill-opacity="0.08627450980392157" id="x0033a0_r0_g51_b160_a0.08627450980392157_shape75"/>
    <path d="M 293,356 294,356 294,357 293,357 z" fill="#0033a0" fill-opacity="0.08627450980392157" id="x0033a0_r0_g51_b160_a0.08627450980392157_shape76"/>
    <path d="M 295,358 294,358 294,357 295,357 z" fill="#0033a0" fill-opacity="0.08627450980392157" id="x0033a0_r0_g51_b160_a0.08627450980392157_shape77"/>
    <path d="M 295,359 295,358 296,358 296,359 z" fill="#0033a0" fill-opacity="0.08627450980392157" id="x0033a0_r0_g51_b160_a0.08627450980392157_shape78"/>
    <path d="M 296,360 296,359 297,359 297,360 z" fill="#0033a0" fill-opacity="0.08627450980392157" id="x0033a0_r0_g51_b160_a0.08627450980392157_shape79"/>
    <path d="M 431,359 432,359 432,360 431,360 z" fill="#0033a0" fill-opacity="0.08627450980392157" id="x0033a0_r0_g51_b160_a0.08627450980392157_shape80"/>
    <path d="M 298,360 298,361 297,361 297,360 z" fill="#0033a0" fill-opacity="0.08627450980392157" id="x0033a0_r0_g51_b160_a0.08627450980392157_shape81"/>
    <path d="M 433,360 433,361 432,361 432,360 z" fill="#0033a0" fill-opacity="0.08627450980392157" id="x0033a0_r0_g51_b160_a0.08627450980392157_shape82"/>
    <path d="M 298,362 298,361 299,361 299,362 z" fill="#0033a0" fill-opacity="0.08627450980392157" id="x0033a0_r0_g51_b160_a0.08627450980392157_shape83"/>
    <path d="M 299,362 300,362 300,363 299,363 z" fill="#0033a0" fill-opacity="0.08627450980392157" id="x0033a0_r0_g51_b160_a0.08627450980392157_shape84"/>
    <path d="M 301,364 300,364 300,363 301,363 z" fill="#0033a0" fill-opacity="0.08627450980392157" id="x0033a0_r0_g51_b160_a0.08627450980392157_shape85"/>
    <path d="M 301,365 301,364 302,364 302,365 z" fill="#0033a0" fill-opacity="0.08627450980392157" id="x0033a0_r0_g51_b160_a0.08627450980392157_shape86"/>
    <path d="M 437,365 436,365 436,364 437,364 z" fill="#0033a0" fill-opacity="0.08627450980392157" id="x0033a0_r0_g51_b160_a0.08627450980392157_shape87"/>
    <path d="M 302,365 303,365 303,366 302,366 z" fill="#0033a0" fill-opacity="0.08627450980392157" id="x0033a0_r0_g51_b160_a0.08627450980392157_shape88"/>
    <path d="M 437,366 437,365 438,365 438,366 z" fill="#0033a0" fill-opacity="0.08627450980392157" id="x0033a0_r0_g51_b160_a0.08627450980392157_shape89"/>
    <path d="M 303,367 303,366 304,366 304,367 z" fill="#0033a0" fill-opacity="0.08627450980392157" id="x0033a0_r0_g51_b160_a0.08627450980392157_shape90"/>
    <path d="M 305,368 304,368 304,367 305,367 z" fill="#0033a0" fill-opacity="0.08627450980392157" id="x0033a0_r0_g51_b160_a0.08627450980392157_shape91"/>
    <path d="M 305,369 305,368 306,368 306,369 z" fill="#0033a0" fill-opacity="0.08627450980392157" id="x0033a0_r0_g51_b160_a0.08627450980392157_shape92"/>
    <path d="M 307,370 306,370 306,369 307,369 z" fill="#0033a0" fill-opacity="0.08627450980392157" id="x0033a0_r0_g51_b160_a0.08627450980392157_shape93"/>
    <path d="M 442,370 441,370 441,369 442,369 z" fill="#0033a0" fill-opacity="0.08627450980392157" id="x0033a0_r0_g51_b160_a0.08627450980392157_shape94"/>
    <path d="M 308,371 307,371 307,370 308,370 z" fill="#0033a0" fill-opacity="0.08627450980392157" id="x0033a0_r0_g51_b160_a0.08627450980392157_shape95"/>
    <path d="M 442,371 442,370 443,370 443,371 z" fill="#0033a0" fill-opacity="0.08627450980392157" id="x0033a0_r0_g51_b160_a0.08627450980392157_shape96"/>
    <path d="M 309,371 309,372 308,372 308,371 z" fill="#0033a0" fill-opacity="0.08627450980392157" id="x0033a0_r0_g51_b160_a0.08627450980392157_shape97"/>
    <path d="M 310,372 310,373 309,373 309,372 z" fill="#0033a0" fill-opacity="0.08627450980392157" id="x0033a0_r0_g51_b160_a0.08627450980392157_shape98"/>
    <path d="M 311,373 311,374 310,374 310,373 z" fill="#0033a0" fill-opacity="0.08627450980392157" id="x0033a0_r0_g51_b160_a0.08627450980392157_shape99"/>
    <path d="M 311,374 312,374 312,375 311,375 z" fill="#0033a0" fill-opacity="0.08627450980392157" id="x0033a0_r0_g51_b160_a0.08627450980392157_shape100"/>
    <path d="M 313,376 312,376 312,375 313,375 z" fill="#0033a0" fill-opacity="0.08627450980392157" id="x0033a0_r0_g51_b160_a0.08627450980392157_shape101"/>
    <path d="M 313,377 313,376 314,376 314,377 z" fill="#0033a0" fill-opacity="0.08627450980392157" id="x0033a0_r0_g51_b160_a0.08627450980392157_shape102"/>
    <path d="M 314,378 314,377 315,377 315,378 z" fill="#0033a0" fill-opacity="0.08627450980392157" id="x0033a0_r0_g51_b160_a0.08627450980392157_shape103"/>
    <path d="M 316,379 315,379 315,378 316,378 z" fill="#0033a0" fill-opacity="0.08627450980392157" id="x0033a0_r0_g51_b160_a0.08627450980392157_shape104"/>
    <path d="M 317,380 316,380 316,379 317,379 z" fill="#0033a0" fill-opacity="0.08627450980392157" id="x0033a0_r0_g51_b160_a0.08627450980392157_shape105"/>
    <path d="M 318,381 317,381 317,380 318,380 z" fill="#0033a0" fill-opacity="0.08627450980392157" id="x0033a0_r0_g51_b160_a0.08627450980392157_shape106"/>
    <path d="M 319,382 318,382 318,381 319,381 z" fill="#0033a0" fill-opacity="0.08627450980392157" id="x0033a0_r0_g51_b160_a0.08627450980392157_shape107"/>
    <path d="M 320,382 320,383 319,383 319,382 z" fill="#0033a0" fill-opacity="0.08627450980392157" id="x0033a0_r0_g51_b160_a0.08627450980392157_shape108"/>
    <path d="M 321,384 320,384 320,383 321,383 z" fill="#0033a0" fill-opacity="0.08627450980392157" id="x0033a0_r0_g51_b160_a0.08627450980392157_shape109"/>
  </g>
</svg>
